<?xml version="1.0" standalone="no"?>
<!DOCTYPE svg PUBLIC "-//W3C//DTD SVG 1.1//EN" "http://www.w3.org/Graphics/SVG/1.1/DTD/svg11.dtd" >
<svg xmlns="http://www.w3.org/2000/svg">
<metadata></metadata>
<defs>
<font id="dubielplainregular" horiz-adv-x="717" >
<font-face units-per-em="2048" ascent="1638" descent="-410" />
<missing-glyph horiz-adv-x="518" />
<glyph horiz-adv-x="0" />
<glyph unicode="&#xd;" horiz-adv-x="0" />
<glyph unicode=" "  horiz-adv-x="518" />
<glyph unicode="&#x09;" horiz-adv-x="518" />
<glyph unicode="&#xa0;" horiz-adv-x="518" />
<glyph unicode="!" horiz-adv-x="477" d="M135 100q0 44 32 76q33 33 75 33q44 0 76 -32q32 -33 32 -77t-32 -75t-76 -31q-42 0 -74.5 31.5t-32.5 74.5zM137 1278q6 68 111 68q49 0 71 -14q21 -14 37 -52q-7 -120 -19.5 -229t-37.5 -301t-36 -286t-19 -214h-6q-6 126 -16 244t-23.5 245.5t-31 280t-30.5 258.5z " />
<glyph unicode="&#x22;" horiz-adv-x="557" d="M45 1237q0 17 6 31q24 68 89 70q38 0 70 -17t38 -49q8 -36 8 -80q0 -184 -166 -342h-16q26 34 54 70t49 72.5t33.5 77.5t12.5 91q-31 -33 -75 -33q-28 0 -52 19q-52 40 -51 90zM295 1237q0 17 6 31q24 68 86 70q38 0 70.5 -17t40.5 -49q8 -36 8 -78q0 -183 -168 -344h-14 q26 34 54 70.5t49 72.5t33.5 77t12.5 91q-31 -33 -77 -33q-27 0 -52 19q-49 42 -49 90z" />
<glyph unicode="$" horiz-adv-x="874" d="M37 254q1 34 21 64q38 58 88 57q4 -1 22 -5q24 -8 36 -32q13 -24 13 -52q0 -30 -10 -48q-7 -15 -45.5 -34t-38.5 -42q0 -12 4 -20q31 -49 96 -83.5t127 -38.5l2 592q-241 112 -260 258q-2 14 -2 46q0 186 164 300q20 13 50 26.5t46 21.5v88h12v-82q34 14 113 14 q47 0 78 -6v72h12v-74q52 -16 88 -31.5t66 -44.5q86 -80 88 -174q1 -88 -65 -100q-88 0 -97 59q0 30 21 57t49 33q31 4 33 25q-13 54 -69.5 96.5t-115.5 48.5v-526q68 -23 131 -70t102 -111q38 -64 38 -138q-4 -264 -220 -370q-10 -4 -27 -13.5t-26 -10.5q1 -3 1.5 -68.5 t0.5 -107.5h-10v174q-113 -14 -147 -14q-26 0 -44 2v-162l-16 2q2 0 2 162q-194 6 -282 162q-28 57 -29 98zM160 983q0 -42 20 -84q28 -50 68 -75.5t102 -47.5v448q-52 -14 -96 -48t-68 -88q-26 -60 -26 -105zM362 18q136 0 191 21v510q-34 2 -108.5 25.5t-82.5 31.5v-588z M362 774q17 -4 56.5 -18.5t71.5 -22.5t63 -8v520q-31 7 -71 7q-82 0 -120 -23v-455zM563 47q60 13 115 67q94 94 94 200q0 44 -18 92q-42 101 -191 139v-498z" />
<glyph unicode="&#x26;" horiz-adv-x="1122" d="M51 362q-1 116 65 218q68 110 224 168q-56 168 -56 274q0 114 52 211q45 84 174 117q20 4 32 4q70 0 134 -60q72 -72 72 -168q0 -40 -15 -102q-21 -87 -83.5 -145.5t-143.5 -82.5l198 -434q32 46 42 98t19 146t21 138q20 80 78 106q38 22 76 22q32 0 58 -22 q38 -32 38 -76q0 -2 -4 -26q-9 -22 -32 -40q-24 -18 -46 -24q-39 0 -62.5 17t-27.5 47q0 58 33 78q-13 6 -23 6q-40 0 -59 -64q-22 -64 -31.5 -151t-19 -165t-31.5 -134q73 -182 181 -252q12 -6 24 -6q36 0 94 77q19 26 24 78q6 51 11 63q6 -20 6 -59q-4 -78 -49 -137 q-62 -78 -152 -84q-55 0 -96.5 22t-69.5 54t-65 86q-40 -34 -70.5 -60t-65.5 -49.5t-73 -38.5q-40 -14 -80 -14q-24 0 -49 6q-127 30 -203 162q-50 94 -49 196zM166 488q0 -44 12 -84q48 -142 109 -235t165 -93q84 6 164 106l-248 516l-22 29q-66 -36 -100 -59 q-34 -24 -56 -70q-24 -48 -24 -110zM391 1143q0 -56 17.5 -111t53 -133.5t40.5 -91.5q102 49 157.5 113t59.5 160q0 68 -12.5 113t-50.5 83q-56 53 -142 53q-84 -40 -104 -86q-18 -53 -19 -100z" />
<glyph unicode="'" horiz-adv-x="307" d="M45 1237q0 17 6 31q24 68 89 70q38 0 70 -17t38 -49q8 -36 8 -80q0 -184 -166 -342h-16q26 34 54 70t49 72.5t33.5 77.5t12.5 91q-31 -33 -75 -33q-28 0 -52 19q-52 40 -51 90z" />
<glyph unicode="(" horiz-adv-x="356" d="M12 518q0 232 100 463q33 78 66.5 141.5t71.5 117.5t94 112q-4 -44 -42.5 -131t-45.5 -109q-50 -146 -75 -297t-25 -301q0 -135 21 -269.5t65 -261.5t110 -239q-40 16 -68 49t-71 99q-97 136 -149 296t-52 330z" />
<glyph unicode=")" horiz-adv-x="356" d="M-10 1346q40 -13 65.5 -44.5t73.5 -101.5q96 -136 147.5 -296t51.5 -328q0 -242 -98 -468q-36 -80 -68 -141t-72 -117t-94 -110q4 44 43 128t47 110q50 143 75 292.5t25 303.5q0 136 -21 270t-65.5 262t-109.5 240z" />
<glyph unicode="*" horiz-adv-x="413" d="M18 1059q7 28 22.5 34.5t62.5 19.5t63 32q-4 22 -23 30t-52 12.5t-48 10.5t-15 24q0 10 11 36q13 6 23 6q16 0 29 -9t34 -29.5t33 -29.5q12 -10 28 -14q6 16 6 32q0 18 -7 48t-7 42q0 30 27 46q43 0 43 -29q-1 -10 -10.5 -48.5t-9.5 -58.5q0 -16 6 -32q14 0 27 10t34 31 t36 33t27 12q22 0 40 -31q-4 -30 -25 -40.5t-64 -19.5t-61 -22q8 -18 25 -25.5t53 -16.5t53 -16t17 -22q0 -16 -28 -43q-24 0 -39.5 13t-42.5 41q-28 28 -46 36q-14 -12 -14 -34q0 -17 10 -53.5t10 -51.5q0 -27 -62 -27q-8 13 -8 33q0 16 8 46.5t8 50.5q0 16 -6 30 q-18 0 -33 -11t-35 -31.5t-34 -31t-26 -10.5q-20 0 -40 27z" />
<glyph unicode="+" horiz-adv-x="645" d="M47 631q16 24 27.5 66.5t15.5 64.5h158v217q19 -22 63 -31.5t70 -11.5v-174h225q-22 -19 -30 -62.5t-8 -68.5h-187v-215q-28 20 -69.5 30t-63.5 13v172h-201z" />
<glyph unicode="," horiz-adv-x="411" d="M98 100q0 16 6 31q22 65 88 72q37 0 70.5 -17.5t38.5 -50.5q8 -35 8 -79q1 -182 -165 -340h-17q30 39 56 72.5t47 68.5t34 77q12 40 12 90q-34 -30 -76 -30q-32 0 -50 18q-52 40 -52 88z" />
<glyph unicode="-" d="M82 631q18 26 29 67.5t14 63.5h518q-22 -18 -31 -58t-10 -63z" />
<glyph unicode="." horiz-adv-x="370" d="M92 104q0 42 28 72q28 29 72 29q42 0 71.5 -28.5t29.5 -72.5t-29.5 -72t-71.5 -28t-71 29t-29 71z" />
<glyph unicode="/" horiz-adv-x="1206" d="M56 0l1007 1352h88l-1001 -1352h-94z" />
<glyph unicode="0" horiz-adv-x="889" d="M41 666q0 150 39 295.5t114 265.5q38 58 108 91.5t146 33.5q122 0 193 -80q70 -76 116.5 -172t68.5 -203t22 -217q0 -274 -110 -508q-34 -70 -98 -113t-140 -55q-28 -4 -44 -4q-94 0 -174 58q-78 58 -130 147q-56 102 -84 220q-27 119 -27 241zM226 764q0 -49 1 -142.5 t3 -185.5t2 -154q0 -69 24 -126q26 -58 72 -84q74 -42 131 -42q66 0 141 48q52 32 52 240q0 132 -4 336t-12 380t-20 218q-5 24 -61 54q-57 30 -111 30q-18 0 -38 -7q-57 -17 -105.5 -47t-52.5 -62q-22 -204 -22 -456z" />
<glyph unicode="1" horiz-adv-x="649" d="M39 2v22h201v1060q-38 -46 -102 -97t-99 -75q0 10 29.5 36t39.5 39q46 56 78 110.5t71 133t52 102.5q13 23 47 23q16 0 29 -8t13 -21v-1303h202v-22h-561z" />
<glyph unicode="2" horiz-adv-x="856" d="M30 936q0 122 66 225q54 86 117 131.5t155 57.5q37 4 54 4q112 0 201 -60t125 -166q22 -62 22 -137q0 -138 -77 -280.5t-201.5 -294t-231.5 -279.5q338 1 482 7q40 2 40 136q0 20 -1 64t-1 64q0 37 2 51h16l26 -453q-6 -10 -146 -10q-62 0 -226 3t-241 3q-22 0 -58.5 -1 t-50.5 -1q156 169 218 239.5t134.5 178t117 228t44.5 251.5q0 43 -2 63q-10 140 -43 231t-129 117q-42 12 -84 13q-94 1 -164 -69q-122 -120 -122 -265q0 -45 12 -96q32 -102 112 -129q16 -6 52 -6q78 0 110 55q32 54 33 131q1 105 -61 248q92 -118 92 -268q0 -114 -58 -207 q-30 -51 -114 -66q-112 1 -168 95q-52 90 -52 192z" />
<glyph unicode="3" horiz-adv-x="874" d="M37 314q1 52 37 100q30 40 80 42q20 0 36 -8q54 -22 62 -61q0 -77 -43 -101q-25 -14 -51 -14q-24 0 -46 14q-7 7 -12.5 13.5t-11.5 11.5t-14 5q0 -81 44 -147.5t105 -102.5q97 -52 187 -52q82 0 149 44q117 74 117 245q0 27 -20 223q-14 112 -103 152q-39 16 -174 16 q-40 0 -87.5 -1t-78.5 -1v23q19 0 55 -1.5t64 -1.5q186 0 250 60q88 80 88 209q0 133 -88 271q-28 46 -75.5 61.5t-115.5 15.5q-85 0 -157 -46.5t-122 -127.5q-18 -33 -18 -69q0 -18 6 -36q34 42 119 42q55 -20 55 -96q-4 -74 -71 -91q-86 -1 -119 61q-22 42 -22 91 q0 59 38 125q42 74 102.5 113t149.5 53q40 8 84 8q74 0 139.5 -24t114.5 -72q50 -50 78 -120q26 -76 26 -126q0 -60 -26 -119q-54 -127 -242 -185q224 -52 285 -218q23 -64 23 -117q0 -98 -72 -205q-116 -172 -336 -172q-58 0 -117 12q-89 22 -161 88.5t-103 163.5 q-8 22 -8 52z" />
<glyph unicode="4" horiz-adv-x="866" d="M30 291q76 107 148 235q94 168 140 335t46 345q0 68 -6 140q72 -12 107 -13q52 1 90 19q-7 -186 -75 -361.5t-163 -323t-245 -351.5h380v446q140 68 168 198l-2 -638q68 0 113 44q37 36 49 81t33 159h17l-2 -313h-210v-265l191 -6v-22h-535v22h178v271z" />
<glyph unicode="5" horiz-adv-x="811" d="M37 299q0 39 10 67q16 60 78 74q111 0 119 -68q0 -70 -50 -92q-15 -6 -30 -6q-32 0 -60 20.5t-36 49.5q-12 -34 -12 -64q0 -86 84 -172q89 -96 208 -96q46 0 96 18q98 39 137 125.5t39 212.5q0 72 -18 246q-16 159 -146 203q-30 11 -75 11q-88 0 -166 -48 q-44 -26 -64.5 -64t-54.5 -120h-14q18 333 18 512q0 139 -4 215q152 -47 268 -47q118 0 220 43q19 7 38.5 17t29.5 16q-15 -64 -71 -120q-57 -56 -137 -87q-56 -23 -118 -23q-74 0 -197 42l-13 -468q78 154 265 154q23 0 69 -4q182 -22 262 -182q60 -122 60 -238 q0 -70 -22 -144q-72 -222 -283 -270q-51 -14 -111 -14q-142 0 -231 98q-88 96 -88 203z" />
<glyph unicode="6" horiz-adv-x="841" d="M41 654q1 252 101 450q118 240 321 248q173 0 235 -140q22 -58 23 -88q-1 -36 -17 -63q-30 -53 -73 -63q-100 0 -119 63q-4 21 -4 27q0 38 32 67q36 37 74 37q32 0 56 -33q4 19 4 23q0 32 -43 86q-49 62 -145 61q-30 0 -46 -2q-128 -11 -160 -111q-78 -252 -77 -483 q0 -12 1 -34.5t1 -32.5q40 65 78 106.5t96 59.5q47 14 96 14q122 0 209 -92q123 -126 123 -298q-1 -82 -27 -159q-30 -108 -97 -187.5t-171 -101.5q-36 -8 -76 -8q-135 0 -223 108q-86 104 -129 247t-43 299zM203 467q0 -182 98 -387q26 -56 131 -56q41 0 78 6 q76 12 99.5 83t25.5 190q1 34 3.5 93.5t2.5 87.5q0 188 -76 292q-34 50 -106 50q-93 0 -150 -64q-106 -112 -106 -295z" />
<glyph unicode="7" horiz-adv-x="794" d="M35 928l2 414q106 2 212.5 4t245.5 4t263 2l4 -23q-166 -234 -251 -510q-85 -275 -85 -577q0 -102 14 -242q-38 24 -106 24q-60 0 -108 -18q14 213 70.5 417.5t145 394.5t210.5 388l-21 4h-523q-46 -26 -46 -128q0 -18 2 -55t2 -52q0 -17 -4 -47h-27z" />
<glyph unicode="8" horiz-adv-x="876" d="M39 342q0 168 184 305q14 11 46.5 26t35.5 17q-243 130 -243 344q8 90 66 165t146 120q75 35 156 35q103 0 194.5 -50t135.5 -136q34 -69 34 -136q0 -90 -56 -166q-52 -62 -166 -120q246 -144 260 -328q4 -42 4 -60q0 -182 -160 -286q-110 -74 -248 -74q-110 0 -182 45 q-202 122 -207 299zM152 1124q2 -96 61 -165t139.5 -112t192.5 -89q72 32 104 88q45 73 45 174q0 96 -38 180q-30 66 -93 101t-139 35q-90 0 -162 -46q-110 -70 -110 -166zM158 389q0 -119 32 -231q16 -51 57 -78q41 -28 109 -50q36 -6 80 -6q176 4 256 103q39 46 39 133 q0 22 -4 76q-11 96 -72 159.5t-135 96.5q-72 34 -192 76q-56 -22 -87 -40t-51 -56q-32 -69 -32 -183z" />
<glyph unicode="9" horiz-adv-x="850" d="M35 899q0 232 170 375q93 80 193 80q44 0 98 -16q134 -38 214 -198q98 -212 99 -462q0 -115 -23.5 -225.5t-71.5 -205.5t-118 -163q-91 -88 -209 -88q-59 0 -105 16q-120 40 -147 132q-14 46 -14 73q0 32 16 72q29 61 109 61q66 -6 84 -61q4 -10 4 -31q0 -64 -60 -88 q-14 -8 -32 -8q-39 0 -76 36q-6 -10 -6 -24q0 -26 24 -68q52 -90 188 -94q110 0 160 62q49 64 73 133.5t30 136t6 156.5v47q0 70 2 102l-4 17q-40 -74 -113.5 -125t-153.5 -51q-102 4 -187 68.5t-119 160.5q-30 85 -31 180zM182 910q0 -206 94 -349q36 -53 105 -53 q25 0 59 10q120 38 156 123q51 119 51 239q-1 180 -121 408q-24 50 -98 50q-22 0 -62 -9q-86 -25 -120 -105q-64 -148 -64 -314z" />
<glyph unicode=":" horiz-adv-x="385" d="M104 104q0 42 29 71.5t72 29.5t72.5 -28.5t29.5 -72.5t-29.5 -72t-72.5 -28q-42 0 -71.5 29t-29.5 71zM104 801q0 42 29 71t72 29t72.5 -28.5t29.5 -71.5q0 -42 -30 -71.5t-72 -29.5t-71.5 29.5t-29.5 71.5z" />
<glyph unicode=";" horiz-adv-x="291" d="M39 801q0 42 28.5 71t72.5 29q43 0 71.5 -28.5t28.5 -71.5q0 -42 -29 -71.5t-71 -29.5t-71.5 29.5t-29.5 71.5zM45 100q0 16 6 31q23 65 89 72q37 0 69.5 -17.5t38.5 -50.5q8 -35 8 -79q0 -182 -166 -340h-16q30 39 56 71.5t47 68.5t33 78q13 40 13 90q-33 -30 -73 -30 q-32 0 -54 18q-52 40 -51 88z" />
<glyph unicode="=" horiz-adv-x="616" d="M82 631q18 26 29 67.5t14 63.5h518q-22 -18 -31 -58t-10 -63zM82 910q18 26 29 68t14 64h518q-22 -19 -31 -59.5t-10 -62.5z" />
<glyph unicode="?" horiz-adv-x="796" d="M86 1061q0 89 68 176q45 57 98 84.5t127 30.5q222 0 299 -186q22 -54 22 -116q0 -80 -42 -163q-38 -62 -156.5 -160.5t-175 -162.5t-56.5 -156q0 -42 19 -94q10 -30 40.5 -49t61.5 -19q24 0 39 12q48 41 65 66.5t25 81.5q0 38 -3.5 67t-10 60t-6.5 39q36 -32 38 -124 q0 -100 -48 -162q-50 -52 -97 -52q-24 0 -43 8q-74 26 -96 100q-12 44 -12 80q0 76 39 138t118 151.5t118.5 154.5t39.5 148q0 12 -4 45q-4 28 -7.5 59.5t-10.5 56.5t-20.5 49t-37.5 44q-64 56 -139 55q-78 0 -162 -90q-53 -57 -53 -127q0 -24 6 -52q25 -96 97 -120 q20 -8 48 -8q32 0 70 18q70 34 70 125q0 17 -4 59q-6 50 -35 90q59 -50 59 -124q0 -112 -21 -167t-91 -77q-33 -12 -64 -12q-36 0 -76 20q-32 19 -47 41.5t-33 71.5q-16 40 -16 90zM282 98q0 41 30 70.5t73 29.5q42 0 71.5 -29t29.5 -71q0 -44 -30 -73t-71 -29 q-42 0 -72.5 30t-30.5 72z" />
<glyph unicode="A" horiz-adv-x="1294" d="M60 0v22q158 0 196 122q40 128 125 404t162 526q77 252 81 276q2 6 13 6q12 0 25.5 -9t19.5 -22q22 -64 156.5 -483.5t176 -548.5t87.5 -271h166l-6 -22l-541 -2l2 24h191l-122 412h-396l-97 -299q-4 -21 -4 -27q0 -86 215 -86v-22h-450zM406 465h376l-194 623z" />
<glyph unicode="B" horiz-adv-x="1157" d="M58 -2v24h204v1307h-190v25h726q128 0 222 -174q37 -70 37 -152q-1 -47 -15 -94q-21 -63 -67.5 -103.5t-103.5 -63.5t-131 -42q134 -34 220 -79.5t124 -139.5q26 -76 26 -142q0 -96 -56 -188q-51 -85 -122.5 -123.5t-162.5 -47.5t-267 -9q-6 0 -171 1t-273 1zM432 22 q24 0 70 -1t66 -1q100 0 172 23t126 88q100 120 100 252q0 107 -65 193q-85 118 -191 126q-65 2 -149.5 3t-128.5 1v-684zM432 735q25 0 76.5 -2t77.5 -2q174 0 254 90q72 81 72 199q0 98 -54 186q-49 78 -128 102q-80 23 -202 23h-96v-596z" />
<glyph unicode="C" horiz-adv-x="964" d="M43 688q1 218 99 389q44 78 85 131.5t100.5 92.5t143.5 55q33 4 49 4q134 0 266 -156l119 140l15 -6v-480h-15q-96 340 -303 463q-32 19 -88 19q-82 0 -121 -40q-99 -103 -137.5 -232.5t-38.5 -295.5q0 -72 9 -206q10 -132 12 -160q10 -158 52 -259.5t152 -150.5 q42 -14 82 -14q68 0 117 30q76 58 126.5 139.5t79.5 169t58 203.5h13v-552q-26 10 -40 28t-37 54t-43 54l-12 8q-123 -155 -250 -155h-2q-119 0 -216.5 70.5t-155.5 181.5q-119 234 -119 475z" />
<glyph unicode="D" horiz-adv-x="1216" d="M56 -2v24h202l-2 1307h-190v23h674q93 0 171.5 -53.5t135.5 -147t89 -210.5t34 -243q0 -254 -68 -403t-226 -229q-130 -68 -282 -68h-538zM436 22h172q110 0 198 50t106 137q61 289 61 513v7q0 265 -78 453q-18 43 -58.5 76t-92.5 51t-103 18h-205v-1305z" />
<glyph unicode="E" horiz-adv-x="1106" d="M49 -4v26h191l18 23v1274q-34 6 -98 8t-100 2v21h972v-453h-16q-10 103 -17 149t-26 103t-57 99t-99 58q-85 20 -195 21q-16 0 -70 -1t-100 -1l-28 -6v-569q40 0 96 -1t86 -1q55 0 81.5 47t37.5 111t21 126l10 -2v-610h-12q-8 54 -14 99t-18 86t-38 68t-68 27h-182v-674 q29 0 87.5 -2t88.5 -2q98 0 174 21t136 80q40 38 64 85t35 92.5t19 104t14 111.5h12v-518z" />
<glyph unicode="F" horiz-adv-x="1106" d="M49 0v20q52 0 130.5 18t78.5 76v1222h-188v16l980 2v-537h-18q-16 178 -64 302q-50 123 -176 189q-66 30 -327 30h-43v-613h123q92 0 141.5 93.5t67.5 203.5h10v-602h-12q-2 11 -11.5 62.5t-30 101t-61.5 86t-102 36.5h-125v-596q0 -54 51 -72t139 -18v-20h-563z" />
<glyph unicode="G" horiz-adv-x="1212" d="M56 668q0 236 81 438q48 116 135 185t199 81q37 4 47 4q168 0 283 -145q22 9 51.5 40t54.5 55.5t47 29.5v-528h-12q-42 148 -67 220.5t-79 151t-140 129.5q-71 39 -148 39q-94 0 -138 -64q-59 -84 -89 -168t-39.5 -173t-9.5 -209q0 -140 8 -260.5t29 -225t59 -184.5 q18 -36 76 -60t124 -24q48 0 90 12q106 30 145.5 151t39.5 273q0 58 -3.5 94t-5.5 52h-212v24h575v-24h-221l2 -604q-30 69 -48 96.5t-37 42.5t-46 37q-85 -160 -225 -176q-34 -4 -52 -4q-172 0 -298 145q-90 100 -133 244q-43 145 -43 305z" />
<glyph unicode="H" horiz-adv-x="1390" d="M68 1352h556v-23h-192l-2 -555h524v551l-194 2v21h258t303 2v-25h-203v-1303h209v-22h-567l-2 22h196v722h-522v-722h192v-24h-550v24h192v1307h-196z" />
<glyph unicode="I" horiz-adv-x="631" d="M37 -2v24h186v1307h-186v23h559v-23h-192v-1307h192v-24h-559z" />
<glyph unicode="J" horiz-adv-x="839" d="M35 221q1 57 23 97q33 57 98 57h2h2q71 0 96 -63q6 -18 6 -40q0 -34 -20 -59q-32 -38 -82 -41q-18 0 -39 6q-13 3 -27 12.5t-20 14.5q-8 -8 -8 -29q0 -22 20 -64q48 -96 184 -96q50 2 105 28t55 64v1221h-188v23h559v-23h-205v-1051q0 -146 -117 -231q-69 -51 -163 -51 q-28 0 -103 8q-101 12 -155 119q-22 44 -23 98z" />
<glyph unicode="K" horiz-adv-x="1298" d="M62 0v22h200v1305h-198v23h567v-23l-213 -2v-692l466 557q18 21 19 53q0 32 -21.5 56.5t-53.5 27.5h-90v23q80 0 226 -1t240 -1v-15q-176 -16 -280 -143q-44 -52 -128 -152q-84 -102 -126 -154l401 -862h166l-2 -24q-341 0 -527 2v22h166l-315 718l-141 -168v-550h202 v-22h-558z" />
<glyph unicode="L" horiz-adv-x="1112" d="M58 -2v22h206v36v1273h-184l-2 25h540v-25h-186v-1307q144 4 235 16t164 50t111 115q66 131 100 407h15v-610z" />
<glyph unicode="M" horiz-adv-x="1491" d="M72 1327v23h407l275 -1014h12l293 1012l356 2v-23h-182v-1305h191v-22h-552v22h201v1250q-38 -140 -114.5 -418t-160.5 -566t-94 -288q-8 0 -60.5 172t-134 452.5t-120.5 418.5q-39 139 -61 217v-1150q0 -34 23 -52.5t58 -26t73 -7.5q36 -2 56 -2l2 -26l-460 4v22 q202 0 202 90l2 1129q0 39 -32.5 55t-77 21t-102.5 10z" />
<glyph unicode="N" horiz-adv-x="1259" d="M58 0v26q78 0 100 4q50 7 76 68.5t33 147.5t7 198v808q0 77 -203 77h-5v23h340l548 -1004v842q0 139 -196 139v23h434v-23q-207 -1 -207 -119v-1210h-25l-657 1200v-1008q-1 -111 137 -155q22 -7 49 -9t41 -2v-28z" />
<glyph unicode="O" horiz-adv-x="1040" d="M28 684q0 256 124 442q136 206 368 212q96 0 177 -59t139 -145q62 -93 95 -224t33 -273q0 -256 -98 -420q-46 -78 -142 -149.5t-222 -71.5q-125 0 -190 42q-64 40 -140 148q-47 72 -78.5 152t-48.5 169t-17 177zM221 614q0 -242 39 -388q18 -66 41 -95t63 -61 q60 -46 132 -46q74 0 145 50q37 28 69 76.5t36 97.5q12 151 19 259.5t7 211.5q0 277 -55 463q-12 48 -70.5 88t-124.5 40q-100 -2 -157.5 -45t-73.5 -87q-32 -92 -51 -248t-19 -316z" />
<glyph unicode="P" horiz-adv-x="1118" d="M51 1327v23q34 0 94.5 1t120 2t109.5 2q49 1 81 1q132 0 234 -11.5t182 -43.5t130 -93.5t61 -157.5q4 -36 4 -50q0 -150 -129 -273q-91 -86 -305 -86q-37 1 -219 13v-572q0 -60 208 -60v-22l-564 -2v24q47 0 117.5 13.5t70.5 56.5l-2 1235h-193zM414 684q168 -16 206 -16 q174 0 234 86q54 74 54 212q0 120 -40 238q-17 54 -78.5 82t-135.5 36q-72 7 -164 7h-76v-645z" />
<glyph unicode="Q" horiz-adv-x="1077" d="M47 616q0 132 18.5 236t57.5 188t99.5 148t145.5 116q74 46 164 46q98 0 195 -53t164 -144q125 -173 125 -457q0 -114 -22 -282q-14 -94 -77 -191t-156 -165t-189 -80q4 -3 70 -68.5t113.5 -98t90.5 -32.5q21 0 43 12q37 20 50 47.5t36 99.5q-1 -134 -109 -196 q-54 -33 -108 -33q-29 1 -72 11q-39 11 -69.5 37.5t-72.5 75.5t-70 72t-58 23q-22 0 -52 -18q-56 -40 -63 -123h-8q-9 16 -9 33q0 18 28 72q14 24 35 37.5t55 28t46 22.5q-128 44 -218.5 136t-136.5 221t-46 279zM232 406q0 -116 21 -194q21 -76 83 -140q68 -68 192 -68 q94 0 170 45q87 52 110.5 130.5t27.5 222.5q4 123 4 186q0 482 -119 664q-23 34 -75 53.5t-116 19.5q-142 0 -202 -88q-62 -90 -79 -245.5t-17 -409.5v-96v-80z" />
<glyph unicode="R" horiz-adv-x="1343" d="M66 0v22h198v1307h-198v23h758q72 0 124.5 -45t79.5 -117q37 -84 37 -182q-1 -80 -29 -134q-24 -56 -69 -92t-91 -54t-126 -42q82 -26 115 -38.5t69 -42.5q37 -31 55 -79q27 -72 40 -197t29 -187q14 -62 74 -116q12 -12 74 -12q24 0 45.5 2t30.5 2v-22h-86 q-108 0 -181 25.5t-105 103.5q-32 69 -49 232t-38 234t-96 71h-287v-640h166v-24zM440 700q8 0 29 -1t51 -1q110 0 208 15t124 53q62 92 62 238q0 96 -34 186q-30 80 -110 106q-78 27 -200 27q-23 0 -66.5 -1t-63.5 -1v-621z" />
<glyph unicode="S" horiz-adv-x="899" d="M39 0v542h14q17 -112 59 -213t115 -181t175 -115q51 -19 104 -19q122 0 204 86q36 36 59 87t23 99q0 58 -36 97q-53 56 -164.5 114.5t-251.5 134.5t-216.5 164t-76.5 210q0 84 41 184q60 145 262 162q116 0 192 -41t132 -121q68 49 120 139l2 -487l-10 4 q-32 128 -52.5 193t-68 133t-129.5 110q-92 49 -172 49q-46 0 -86 -14q-120 -47 -149 -119q-29 -68 -29 -106q0 -46 31 -74q88 -87 218.5 -154t253.5 -130t189 -146.5t66 -223.5q0 -32 -2 -50q-16 -185 -198 -279q-70 -37 -152 -37q-129 0 -244 84q-24 17 -50.5 44.5 t-39.5 43.5q-36 -28 -75 -83t-58 -87z" />
<glyph unicode="T" horiz-adv-x="1091" d="M56 796v558h986v-549q-2 0 -5 -5.5t-5 -5.5q-4 0 -6 11q-21 154 -42.5 246t-65.5 161q-46 68 -126 103q-33 14 -77 14q-7 0 -35 -1t-52 -1l5 -1305h209v-22h-582v22h199l-3 1305q-12 0 -37.5 1t-37.5 1q-45 0 -69 -12q-73 -36 -118.5 -92.5t-69 -123.5t-31.5 -117 q-7 -50 -25 -188h-12z" />
<glyph unicode="U" horiz-adv-x="1319" d="M74 1329l2 23h557v-23h-203v-1116q0 -61 42 -107t106 -69q60 -21 124 -21q96 0 181 39t115 107q22 60 22 166v854q0 151 -170 151h-2q-20 0 -34 -1.5t-20 -2.5v25h478v-23q-218 0 -218 -137v-924q0 -138 -140 -227q-76 -47 -212 -47q-88 0 -171.5 23t-139.5 67 q-125 96 -125 232v1011h-192z" />
<glyph unicode="V" horiz-adv-x="1284" d="M58 1327v27l560 -2v-23h-214l315 -1034l19 -17l222 912q4 24 4 32q0 106 -204 107v25l458 -2v-23q-3 1 -10.5 2.5t-19.5 1.5q-58 0 -119.5 -50.5t-97.5 -188.5q-23 -92 -66 -263t-113 -447q-70 -278 -96 -372q-6 -22 -32 -22q-13 0 -17 10q-24 74 -118 376t-175 562 q-80 261 -120 389h-176z" />
<glyph unicode="W" horiz-adv-x="1732" d="M58 1329v23h526v-23h-186l276 -1069l184 834l-51 184q-16 51 -158 51v25l489 -2v-23h-184l291 -1024l189 871q4 24 4 34q0 118 -193 119l2 23h426v-23q-77 0 -135 -24t-78 -115l-254 -1184q-7 -4 -23.5 -4t-21.5 -2l-289 1016l-233 -1020l-63 12l-336 1321h-182z" />
<glyph unicode="X" horiz-adv-x="1290" d="M58 4v20q192 0 264 144l258 498l-348 663h-150v23h518v-23h-196l276 -505l211 405q12 24 12 41q0 38 -46 48.5t-134 10.5v23h436v-21q-183 0 -233 -98l-234 -443l396 -768h145v-24l-549 -2v28h217l-313 609l-242 -471q-16 -38 -16 -56q0 -84 188 -84v-22z" />
<glyph unicode="Y" horiz-adv-x="1284" d="M58 1327v21h573v-21h-215l315 -625l207 480q14 32 14 57q0 90 -192 90v23h464v-23q-180 0 -260 -180l-220 -500v-627h210v-26l-569 4v22h195v650l-340 655h-182z" />
<glyph unicode="Z" horiz-adv-x="942" d="M39 830v522h819l-635 -1330q26 0 82.5 -1t83.5 -1q139 0 233 31t146 125q34 60 54 127.5t38 166t27 134.5l18 -2l-4 -602h-856q26 56 118 248t112.5 235.5t170.5 357t230 482.5q-30 0 -92 2t-94 2h-5q-180 0 -262 -75q-54 -52 -86.5 -118.5t-48.5 -136.5 q-16 -69 -32 -167h-17z" />
<glyph unicode="\" horiz-adv-x="1206" d="M56 1344h94l1001 -1352h-88z" />
<glyph unicode="^" horiz-adv-x="995" d="M219 1006l289 296l258 -296h-170l-148 188l-180 -188h-49z" />
<glyph unicode="`" horiz-adv-x="846" d="M262 1196q0 30 5 60q5 28 7 42q0 -20 76 -81t155 -116t117 -81l-348 108q-12 24 -12 68z" />
<glyph unicode="a" horiz-adv-x="831" d="M39 274q9 114 117 182q41 26 152.5 54t143.5 38q34 10 36 40q10 102 10 127q0 154 -123 182q-84 0 -135.5 -15.5t-83.5 -57.5q4 -17 27.5 -30t43 -24.5t21.5 -31.5q0 -49 -10 -70q-10 -20 -42 -23q-46 0 -73 9.5t-39 39.5q-6 21 -6 39q0 62 64 115q84 72 202 72 q59 0 123 -23q114 -40 139 -135q37 -123 37 -291q0 -42 -1.5 -84t-5 -99t-6 -121.5t-2.5 -104.5q4 -32 50 -32q28 0 47 13q49 38 55 160h16q-4 -78 -23 -128.5t-71 -66.5q-31 -10 -57 -10q-66 0 -100 49q-39 62 -51 127q-70 -148 -182 -170q-30 -6 -60 -6q-74 0 -129 49 q-84 79 -84 227zM176 266q0 -78 29 -176q8 -24 35 -42t57 -18q24 0 47 13q54 36 83.5 87.5t40.5 113t12.5 133t3.5 137.5l-21 18q-28 -19 -79 -31.5t-90.5 -22.5t-57.5 -30q-60 -65 -60 -182z" />
<glyph unicode="b" horiz-adv-x="927" d="M41 1329v25l301 -2l-2 -594q102 154 256 154q82 0 149 -60t105 -164q39 -106 41 -234q0 -116 -19 -186t-62 -122q-44 -54 -132 -124q-32 -30 -92 -30q-44 0 -98 20q-48 18 -90.5 72t-61.5 86l-2 -170l-281 -2v24h147v1307h-159zM338 442q0 -133 17 -198.5t73 -151.5 q40 -68 158 -68q83 14 98 84q47 178 47 357q0 165 -39 331q-20 88 -96 88q-56 0 -110.5 -27t-91 -71t-42.5 -94q-12 -122 -14 -250z" />
<glyph unicode="c" horiz-adv-x="727" d="M33 461q1 267 211 405q66 44 154 44q78 0 141 -37.5t83 -106.5q22 -74 23 -100q-1 -40 -29 -66q-42 -35 -78 -35q-18 1 -34 9q-58 26 -58 82q0 16 10 36q24 60 80 60q28 0 58 -21q0 99 -112 149q-42 16 -76 17q-42 -1 -94 -27q-74 -42 -95 -141.5t-21 -261.5 q0 -124 4 -197t20 -130.5t48 -83.5q50 -44 134 -44q41 0 73 8q175 42 209 306h10q-16 -220 -149 -298q-72 -38 -152 -38q-74 0 -131 32q-120 68 -174 177.5t-55 261.5z" />
<glyph unicode="d" horiz-adv-x="925" d="M41 465q1 84 27 176q72 243 258 271q24 4 34 4q42 0 75 -19t79 -57q15 -12 27 -28t31 -45l18 -29v591h-150v23l289 2l2 -1332h153v-22l-294 -2v180q-70 -139 -168 -178q-32 -12 -64 -12q-85 0 -153 72q-79 82 -121.5 187.5t-42.5 217.5zM203 442q0 -86 2 -124 q4 -101 16.5 -160.5t54.5 -108.5q34 -37 86 -37q36 0 76 23q66 43 108 107.5t42 123.5l2 377q0 40 -23 86t-63 82q-42 38 -71 57t-67 19q-18 -1 -46 -11q-116 -46 -117 -434z" />
<glyph unicode="e" d="M33 422q0 48 6 94q12 84 36.5 151t72.5 123q46 56 120 92q48 26 96 26q34 0 95 -21q54 -20 88.5 -56.5t66.5 -92.5q62 -102 62 -271h-490q0 -220 29 -346q19 -77 137 -107q26 -6 54 -6q108 0 174 82q72 88 92 190h14q-36 -208 -170 -266q-46 -22 -110 -22q-78 0 -156 38 q-217 103 -217 392zM186 494h350q0 18 1 52.5t1 53.5q0 178 -71 254q-43 43 -97 43q-45 -1 -79 -29q-67 -53 -86 -130.5t-19 -192.5v-51z" />
<glyph unicode="f" horiz-adv-x="657" d="M26 4v20l160 2v834l-156 2v27h156q1 112 9.5 189.5t43 149.5t107.5 108q42 20 88 20q55 0 102 -28q46 -26 70 -76q20 -32 20 -114q-8 -27 -28.5 -41.5t-46.5 -14.5q-24 0 -45 12q-36 20 -39 63q0 17 6 33q8 22 29.5 35.5t48.5 13.5l9 1q10 2 12 5q-30 73 -90 84 q-22 9 -52 9q-64 0 -84 -44q-30 -68 -30 -219q0 -24 1 -84.5t1 -101.5l157 -2v-29h-157v-832l166 -2v-22z" />
<glyph unicode="g" horiz-adv-x="889" d="M39 -112q1 34 23 65q28 41 84 41q16 0 38 -8q58 -26 100 -86q-72 38 -100 38q-24 0 -40 -14q-42 -36 -42 -74q0 -20 10 -32q81 -102 265 -102q94 0 221 26q72 12 104 104q6 18 6 38q0 46 -30 86q-34 38 -76 50.5t-91 14t-111 2.5q-31 0 -82.5 -3.5t-79.5 -3.5 q-140 0 -170 91q-6 19 -6 35q0 38 42 92q18 22 51 41t52 27q-119 114 -119 296q3 85 49 151.5t123 102.5q64 30 127 31q124 -1 215 -99q74 82 164 82q74 -15 102 -79q8 -21 8 -35q0 -36 -24 -58q-22 -18 -49 -18q-29 0 -47 20q-14 16 -14 64q3 26 18.5 39t54.5 23 q-29 34 -71 34q-26 0 -48 -12t-35 -24t-27 -32t-16 -22q70 -112 72 -196q0 -78 -17 -133t-63 -103q-88 -88 -212 -96q-32 1 -86 22t-80 21q-34 0 -66 -29q-26 -26 -26 -51q0 -17 10 -25q54 -48 162 -48q30 0 95 5t97 5q116 0 176 -54q78 -68 78 -164q0 -38 -16 -84 q-48 -123 -234 -151q-56 -6 -110 -6h-3q-246 0 -342 147q-14 20 -14 48zM217 551q0 -90 15 -153q14 -62 42 -78q66 -40 117 -40q54 0 127 46q41 24 41 260q-4 128 -53 240q-22 50 -102 50q-48 0 -86 -16q-48 -19 -71.5 -99.5t-27.5 -158.5q0 -10 -1 -26t-1 -25z" />
<glyph unicode="h" horiz-adv-x="1024" d="M45 1302l2 23l289 2v-615q1 40 31.5 85t90 75.5t138.5 30.5q98 0 166 -44.5t68 -156.5v-680h151v-26h-434v24h141v720q0 56 -24 99t-68 43q-62 0 -122 -33t-99 -102t-39 -167v-558h133v-24q-47 2 -172 2q-78 0 -148.5 -1t-101.5 -1l4 24h141v1280h-147z" />
<glyph unicode="i" horiz-adv-x="514" d="M49 884v26h287v-888h137v-24h-411v24h138v862h-151zM156 1256q0 39 28 67.5t68 28.5t68 -28t28 -68t-28 -67.5t-68 -27.5t-68 27.5t-28 67.5z" />
<glyph unicode="j" horiz-adv-x="432" d="M-88 -144q0 24 12 52q24 53 72 53q39 0 68 -18q28 -17 34 -51q0 -76 -59 -99q-9 -4 -25 -4q-7 0 -13.5 1t-22.5 4.5t-23 5.5q2 -28 22.5 -45t57.5 -37q23 -14 67 -15q54 1 76 23q28 27 43 100.5t15 138.5v919h-162v24h280v-938q0 -86 -50 -162t-132 -103q-36 -12 -76 -12 q-74 0 -118 43q-66 60 -66 120zM211 1256q0 36 26.5 63t63.5 27q39 0 65.5 -27t26.5 -63q0 -37 -27 -64.5t-65 -27.5q-36 0 -63 28t-27 64z" />
<glyph unicode="k" horiz-adv-x="964" d="M43 -4v26h153v1278h-151q0 4 -0.5 12.5t-1.5 10.5h283v-907l309 366q25 28 25 52q0 44 -152 44v23h358l2 -23q-108 0 -198 -100l-170 -190l311 -566h109v-22h-384v22h118l-242 451l-84 -92v-359h124v-26h-409z" />
<glyph unicode="l" horiz-adv-x="534" d="M64 -2v24h134v1270h-130v25h266v-1295h152l-2 -24h-420z" />
<glyph unicode="m" horiz-adv-x="1536" d="M70 844v22h274v-170q20 29 35 51t34.5 46t42 44.5t48.5 36.5q56 36 116 36q70 0 120 -52q38 -42 56 -76q20 -34 28 -94q35 71 60.5 111.5t75.5 72.5q50 31 124 31q50 0 102 -30.5t87 -86.5q35 -54 35 -126v-638h156v-22h-440v22h148v642q0 90 -27 153t-65 63 q-72 0 -129 -44t-88 -111t-31 -129l-2 -574h124v-22h-401v22h147v574q0 14 1 46t1 48q0 86 -18 136q-18 48 -74 54q-94 0 -154 -67q-112 -122 -112 -209v-582h131v-22h-403v22h133v822h-135z" />
<glyph unicode="n" horiz-adv-x="1032" d="M47 842q4 0 4 14q0 8 -4 10h295l-2 -174q42 68 76 111t81.5 72.5t110.5 29.5q62 0 116 -31t86 -83.5t32 -112.5v-656h129v-22h-418v22h147l-2 660q0 75 -16 123.5t-68 64.5q-20 8 -44 8q-74 0 -124 -69q-104 -140 -104 -248l-2 -539h135v-22l-422 -4v26h147v820h-153z " />
<glyph unicode="o" horiz-adv-x="762" d="M43 438q0 122 39.5 232t116.5 177t182 67q106 0 183 -68t116 -176t39 -224q-1 -112 -41 -216t-117 -169t-180 -65q-102 0 -177.5 63.5t-116.5 165t-44 213.5zM186 448q0 -150 12 -238t55 -138t130 -50q88 0 130.5 48.5t54.5 136t12 241.5q0 156 -11 246t-53.5 143.5 t-132.5 53.5t-132 -50t-53.5 -138.5t-11.5 -254.5z" />
<glyph unicode="p" horiz-adv-x="919" d="M41 866v23h283v-143q33 72 94 127t139 55q100 -2 165.5 -67t115.5 -181q40 -96 40 -207q0 -120 -48 -231q-50 -110 -134 -193q-54 -53 -137 -53q-46 0 -80 18q-101 52 -153 170v-442h147v-24h-428v24h131v1124h-135zM322 436q0 -117 20 -197.5t78 -152.5q60 -68 131 -68 q33 0 55 15q75 48 94 144.5t19 258.5v90q0 107 -12.5 184t-52.5 148q-27 45 -93 45q-26 0 -39 -4q-40 -11 -86 -47t-78 -86t-32 -98q0 -45 -2 -121.5t-2 -110.5z" />
<glyph unicode="q" horiz-adv-x="919" d="M24 473q0 110 42 207q53 118 116.5 182t163.5 66q54 0 101 -28t80 -70q33 -40 53 -84v143h282v-23h-135v-1124h131v-24h-426v24h148v442q-55 -118 -156 -170q-34 -18 -80 -18q-84 0 -137 53q-84 84 -133.5 194t-49.5 230zM184 436q1 -109 7 -178t30.5 -130.5t75.5 -94.5 q23 -15 55 -15q80 4 132 68q60 72 79 155t19 205q0 30 -1 104t-1 118q0 49 -33 98.5t-79.5 85t-86.5 47.5q-12 4 -39 4q-67 0 -92 -45q-39 -70 -52 -148q-14 -78 -14 -184v-90z" />
<glyph unicode="r" d="M47 0v22h139v830h-139v22h279v-174q43 92 84.5 147.5t115.5 55.5q47 0 74.5 -8.5t48.5 -36.5q35 -42 35 -84q0 -14 -6 -32q-20 -58 -72 -64q-34 0 -60 16q-26 18 -30 48q0 76 56 92q12 4 24 4q13 0 26 -2q12 -2 17 -4q1 34 -55 52q-18 6 -37 7h-2q-52 0 -107 -49 q-110 -102 -110 -289v-531h145v-22h-426z" />
<glyph unicode="s" horiz-adv-x="661" d="M37 -2v358q36 -88 69 -150.5t84 -117t119 -76.5q50 -14 80 -14q51 0 88 26q36 26 60 66t24 80q-1 36 -19 66q-54 81 -222 179.5t-220.5 137.5t-52.5 129q1 48 19 90q48 119 190 136q60 0 100 -19t81 -47.5t59 -28.5h1q31 0 66 67h21v-315q-36 93 -72 159t-90 104 q-81 59 -154 59h-2q-46 0 -76 -25q-63 -47 -63 -114q0 -36 23 -60q48 -48 124.5 -89.5t156.5 -85t130.5 -99.5t64.5 -142q4 -32 5 -42q0 -68 -39 -127q-38 -59 -100 -97q-45 -28 -103 -28q-88 0 -184 63q-13 7 -61 57q-6 6 -15 6q-14 0 -25.5 -15t-27.5 -47q-14 -32 -20 -42 z" />
<glyph unicode="t" horiz-adv-x="590" d="M28 874h156v290q40 6 75 34t50 70h15l2 -392l164 -2v-32h-166l2 -719q0 -45 39 -71t89 -26q38 3 66 65q29 63 29 135h12q0 -110 -43 -177q-42 -59 -125 -59q-54 0 -98 22q-62 27 -87.5 76.5t-25.5 134.5v619h-152z" />
<glyph unicode="u" horiz-adv-x="1014" d="M58 880v28h278v-764q0 -59 42 -94.5t85 -35.5q19 0 27 6q90 48 146 137.5t56 190.5v536h-166v26h300v-888h145v-22h-277l-2 215q-64 -102 -132 -162.5t-173 -60.5q-197 24 -197 158v730h-132z" />
<glyph unicode="v" horiz-adv-x="971" d="M68 910h374v-26h-128l241 -675l199 587q4 10 4 30q0 58 -125 58v26h301v-26q-118 0 -148 -92l-276 -808h-28l-312 900h-100q-2 0 -2 26z" />
<glyph unicode="w" horiz-adv-x="1257" d="M51 884v26h347v-28h-86q12 -46 41 -149.5t71 -239t72 -213.5l98 441l-54 163h-79v26h363l2 -26h-128l195 -652l166 562q4 17 4 23q0 40 -40.5 53.5t-104.5 13.5v26h315v-26l-12 3t-23 2q-90 -1 -118 -97l-234 -810l-25 10l-207 666l-149 -654q-8 -6 -14.5 -11t-10.5 -11 l-272 902h-117z" />
<glyph unicode="x" horiz-adv-x="971" d="M49 884v26h387v-26h-131l195 -316l170 272q4 6 4 14q0 30 -123 30v26h325v-26q-33 0 -88.5 -8t-75.5 -36l-190 -302l302 -516h104v-26h-402v26h132l-220 396l-192 -320q-8 -14 -8 -26q0 -50 162 -50l2 -26h-351v26q104 0 156 84l215 340l-260 438h-113z" />
<glyph unicode="y" horiz-adv-x="966" d="M22 880v25h424v-25h-145l264 -667l197 551q6 21 6 37q0 83 -154 83v24h322q-4 -9 -4 -13t1.5 -6.5t2.5 -4.5q-48 0 -82 -18t-56 -74l-342 -964q-28 -90 -124 -129q-14 -6 -46 -6q-58 1 -102 35q-61 47 -61 108q0 28 8 48q24 63 86 63h2q20 -1 37 -9q20 -9 34 -31 q13 -23 13 -49q0 -8 -4 -24q-9 -28 -32 -45t-52 -17q-11 0 -29 5q-8 2 -13 4.5t-9 3.5q16 -38 48 -59t68 -21q31 1 52 11q40 16 67 47.5t44 74t31 98.5t20 84l-346 860h-126z" />
<glyph unicode="z" horiz-adv-x="712" d="M30 -2q0 16 122.5 224t231.5 388q110 180 167 274q-57 6 -109 7h-5q-132 0 -203 -49q-58 -40 -84 -112q-26 -71 -36 -169q-2 2 -6 5.5t-10 3.5q-8 0 -12 -9v349h624l-520 -888q25 0 80.5 -2t81.5 -2q116 0 170 27q45 21 72.5 58t46 86t35.5 97l14 3l-2 -291h-658z" />
<glyph unicode="~" horiz-adv-x="835" d="M60 964q9 117 66.5 186.5t151.5 73.5q40 0 71.5 -18.5t74 -55t76.5 -56t78 -19.5q72 8 117 35.5t91 93.5q-32 -120 -73 -183t-125 -85q-21 -4 -31 -4q-38 0 -67 20t-69.5 61.5t-74.5 65t-78 25.5q-76 0 -115 -27t-93 -113z" />
<glyph unicode="&#xa1;" horiz-adv-x="327" d="M-24 60q8 124 18.5 217t35 280t37.5 301q13 116 21 232h6q7 -152 21.5 -309t39.5 -376t39 -343q-6 -68 -110 -68q-48 0 -70 14t-38 52zM-18 1239q0 43 31.5 75t76.5 32q44 0 75 -31.5t31 -75.5t-32 -76.5t-74 -32.5q-44 0 -76 33t-32 76z" />
<glyph unicode="&#xa2;" horiz-adv-x="731" d="M33 750q0 115 50.5 220.5t144.5 188.5q62 55 114 65l-2 122h32l3 -119q94 -8 155 -35q62 -26 94 -112q18 -50 19 -82q-1 -34 -19 -68q-29 -46 -79 -46q-18 0 -43 11q-52 28 -52 82q0 17 6 31q12 28 35 46.5t49 18.5q32 -1 64 -27q0 82 -86 132q-37 22 -96 22 q-10 0 -27 -1t-25 -1v-860q140 0 206 62q82 82 102 243h20q-10 -177 -118 -264q-96 -76 -210 -76v-131h-32v129q-98 26 -172 107.5t-108 185.5q-24 78 -25 156zM174 735q0 -157 47 -295q14 -38 47 -63t70 -33v842q-4 -2 -33 -18t-44 -30t-21 -36q-66 -180 -66 -367z" />
<glyph unicode="&#xa5;" horiz-adv-x="1243" d="M41 1327v21h573v-21h-214l315 -625l207 480q14 31 14 57q0 90 -192 90v23h464v-23q-180 0 -260 -180l-221 -500v-627h209l2 -26l-570 4v22h193l2 650l-340 655h-182zM360 360q18 26 29 49t15 31h518q-22 -18 -31 -43t-11 -39zM360 584q18 26 29 48t15 32h518 q-22 -18 -31 -44t-11 -38z" />
<glyph unicode="&#xa8;" horiz-adv-x="706" d="M108 1128q0 43 29 73t72 30t71.5 -29.5t28.5 -73.5q0 -42 -29 -71t-71 -29t-71.5 29t-29.5 71zM416 1128q0 43 29.5 73t72.5 30q42 0 71 -29.5t29 -73.5q0 -42 -29 -71t-71 -29t-72 29t-30 71z" />
<glyph unicode="&#xa9;" horiz-adv-x="1452" d="M86 649q0 171 85 318t232 233t318 86q172 0 318 -86t231.5 -233t85.5 -318q0 -170 -85.5 -316t-232 -231.5t-317.5 -85.5t-318 85.5t-232 231.5t-85 316zM127 649q0 -160 80.5 -296t217.5 -215.5t296 -79.5q160 0 297.5 79.5t218 216t80.5 295.5q0 160 -80.5 297.5 t-218 218t-297.5 80.5t-296.5 -80.5t-217 -217.5t-80.5 -298zM463 680q0 116 55 217q37 65 75.5 102t104.5 51q98 0 174 -86l64 78l8 -2v-266h-8q-22 80 -63 150t-101 106q-16 10 -47 10q-47 0 -69 -22q-94 -100 -95 -287q0 -40 4.5 -103.5t6.5 -101.5q6 -88 28 -142t84 -81 q20 -8 47 -8q37 0 57 14q62 48 92 114.5t56 168.5h6v-301q-18 6 -38 36.5t-28 36.5l-4 6q-72 -88 -139 -88q-66 0 -119.5 39t-85.5 101q-66 128 -65 258z" />
<glyph unicode="&#xaa;" horiz-adv-x="622" d="M82 916v22h506v-22h-506zM100 1239q6 67 70 107q23 16 86.5 32t82.5 22t21 24q6 34 6 71q0 89 -71 107q-93 0 -125 -46q2 -10 27 -21t26 -27q-1 -52 -29 -54q-57 0 -65 31q-4 17 -4 23q0 35 37 65q46 41 118 41q32 0 68 -12q68 -28 82 -80q20 -68 20 -166q0 -44 -5 -123 t-5 -115q3 -18 29 -18q19 0 29 8q28 18 32 90h10q-4 -94 -52 -112q-80 0 -95 24q-21 36 -29 72q-44 -86 -106 -98q-80 0 -108 26q-50 46 -50 129zM180 1235q0 -49 16 -103q11 -34 52 -34q12 0 30 10q41 26 57.5 67t18.5 97t4 108l-10 10q-23 -15 -71.5 -25.5t-61.5 -22.5 q-35 -38 -35 -107z" />
<glyph unicode="&#xad;" d="M82 631q18 26 29 67.5t14 63.5h518q-22 -18 -31 -58t-10 -63z" />
<glyph unicode="&#xae;" horiz-adv-x="1452" d="M86 649q0 171 85 318t232 233t318 86q172 0 318 -86t231.5 -233t85.5 -318q0 -170 -85.5 -316t-232 -231.5t-317.5 -85.5t-318 85.5t-232 231.5t-85 316zM127 649q0 -160 80.5 -296t217.5 -215.5t296 -79.5q160 0 297.5 79.5t218 216t80.5 295.5q0 160 -80.5 297.5 t-218 218t-297.5 80.5t-296.5 -80.5t-217 -217.5t-80.5 -298zM430 991l2 13h389q75 0 107 -84q18 -46 18 -94q0 -42 -14 -70q-18 -41 -53 -59.5t-97 -36.5q52 -15 82 -30.5t44 -51.5q13 -36 19.5 -101t14.5 -97t39 -62q4 -4 33 -4h26q13 2 19 2v-15q-84 0 -128.5 12.5 t-64.5 56.5q-17 36 -26 120t-19.5 120.5t-48.5 36.5h-150v-329h88l-2 -15l-276 2v13h100v673h-102zM622 668h44q148 0 170 34q32 42 32 119q0 49 -18 99q-17 46 -71.5 57.5t-156.5 11.5v-321z" />
<glyph unicode="&#xb0;" horiz-adv-x="467" d="M66 1145q0 74 52 126t126 52q75 0 126.5 -52.5t51.5 -125.5q0 -76 -52 -129q-50 -52 -126 -52q-75 0 -126.5 52.5t-51.5 128.5zM108 1145q0 -55 38 -93t94 -38q54 0 92 38t38 93q0 54 -38 92.5t-92 38.5t-93 -39t-39 -92z" />
<glyph unicode="&#xb4;" horiz-adv-x="846" d="M299 1020q38 26 117 81t155 116t76 81q2 -14 6.5 -41t4.5 -61q0 -48 -11 -68z" />
<glyph unicode="&#xb6;" horiz-adv-x="1294" d="M43 998q0 16 4 52q12 98 72.5 159t159 92t223.5 42q124 11 296 11q72 0 224 -2t230 -2v-23h-140v-1305h100v-24l-724 2v22h208l-2 632q-176 -12 -217 -13q-216 0 -307 86q-127 125 -127 271zM200 966q0 -136 56 -212q60 -86 234 -86q32 0 206 16l-2 645q-8 0 -39.5 1 t-54.5 1q-318 0 -360 -127q-40 -126 -40 -238zM858 30l86 -8l-2 1305h-76z" />
<glyph unicode="&#xb7;" horiz-adv-x="278" d="M92 721q0 42 29 72.5t71 30.5t71.5 -30t29.5 -73q0 -42 -29.5 -71.5t-71.5 -29.5t-71 29.5t-29 71.5z" />
<glyph unicode="&#xba;" horiz-adv-x="596" d="M96 1294q0 75 24.5 144.5t72.5 112.5t116 43q66 0 114 -43t72.5 -111t24.5 -140q-1 -70 -26 -136t-72.5 -106t-112.5 -40q-95 0 -152 83t-61 193zM102 916v22h443v-22h-443zM186 1302q0 -95 8 -150.5t34 -87.5t81 -32q56 0 82.5 30.5t34.5 86.5q8 55 8 153q0 99 -7 154.5 t-34.5 89t-83.5 33.5q-55 0 -82 -31.5t-34 -86.5t-7 -159z" />
<glyph unicode="&#xbf;" horiz-adv-x="667" d="M-47 297q0 82 43 162q38 64 157 162.5t174.5 161.5t55.5 155q-1 43 -19 94q-10 29 -40 48.5t-62 19.5q-22 0 -39 -12q-47 -40 -64 -64.5t-26 -81.5q0 -40 3.5 -67t9.5 -60t8 -39q-36 31 -40 123q0 97 50 160q43 55 94 55q18 0 45 -10q75 -26 97 -98q12 -42 12 -80 q0 -76 -38.5 -138t-118 -151t-119.5 -156t-40 -149q0 -12 4 -46q4 -29 8 -58.5t11 -55.5t20 -49.5t37 -44.5q64 -56 140 -56q78 0 161 90q53 56 53 128q0 26 -6 53q-24 97 -96 121q-24 6 -47 6q-38 0 -72 -16q-69 -34 -69 -128q0 -18 4 -59q6 -44 34 -90q-60 51 -59 125 q0 114 21.5 169t91.5 77q36 10 61 10q40 0 78 -20q32 -16 48 -41.5t32 -69.5q17 -47 17 -93q0 -86 -68 -176q-86 -110 -226 -112q-222 0 -298 184q-22 53 -23 117zM168 1250q0 41 29 70.5t71 29.5q43 0 72.5 -29t29.5 -71q0 -44 -30 -73.5t-72 -29.5t-71 30q-29 31 -29 73z " />
<glyph unicode="&#xc0;" horiz-adv-x="1313" d="M60 0v22q158 0 196 122q40 128 125 404t162 526q77 252 81 276q2 6 13 6q12 0 25.5 -9t19.5 -22q22 -64 156.5 -483.5t176 -548.5t87.5 -271h166l-6 -22l-541 -2l2 24h191l-122 412h-396l-97 -299q-4 -21 -4 -27q0 -86 215 -86v-22h-450zM406 465h376l-194 623zM448 1620 q0 30 4 60q4 28 7 42q0 -20 76 -81t155 -116t117 -81l-348 110q-11 20 -11 66z" />
<glyph unicode="&#xc1;" horiz-adv-x="1339" d="M60 0v22q158 0 196 122q40 128 125 404t162 526q77 252 81 276q2 6 13 6q12 0 25.5 -9t19.5 -22q22 -64 156.5 -483.5t176 -548.5t87.5 -271h166l-6 -22l-541 -2l2 24h191l-122 412h-396l-97 -299q-4 -21 -4 -27q0 -86 215 -86v-22h-450zM406 465h376l-194 623zM456 1417 q38 26 117 80t156.5 115.5t77.5 83.5q2 -13 6 -42.5t4 -59.5q0 -46 -10 -66z" />
<glyph unicode="&#xc2;" horiz-adv-x="1313" d="M60 0v22q158 0 196 122q40 128 125 404t162 526q77 252 81 276q2 6 13 6q12 0 25.5 -9t19.5 -22q22 -64 156.5 -483.5t176 -548.5t87.5 -271h166l-6 -22l-541 -2l2 24h191l-122 412h-396l-97 -299q-4 -21 -4 -27q0 -86 215 -86v-22h-450zM406 465h376l-194 623zM406 1376 l286 300l260 -300h-170l-149 188l-179 -188h-48z" />
<glyph unicode="&#xc3;" horiz-adv-x="1327" d="M60 0v22q158 0 196 122q40 128 125 404t162 526q77 252 81 276q2 6 13 6q12 0 25.5 -9t19.5 -22q22 -64 156.5 -483.5t176 -548.5t87.5 -271h166l-6 -22l-541 -2l2 24h191l-122 412h-396l-97 -299q-4 -21 -4 -27q0 -86 215 -86v-22h-450zM299 1442q8 116 65.5 186 t153.5 74q40 0 71 -19t74 -56t76 -56t76 -19q74 9 119.5 36.5t89.5 93.5q-20 -78 -42 -130.5t-59 -88t-97 -50.5q-22 -4 -32 -4q-37 0 -64.5 19.5t-70 62.5t-75 65.5t-76.5 24.5q-76 0 -115 -27t-94 -112zM406 465h376l-194 623z" />
<glyph unicode="&#xc4;" horiz-adv-x="1313" d="M60 0v22q158 0 196 122q40 128 125 404t162 526q77 252 81 276q2 6 13 6q12 0 25.5 -9t19.5 -22q22 -64 156.5 -483.5t176 -548.5t87.5 -271h166l-6 -22l-541 -2l2 24h191l-122 412h-396l-97 -299q-4 -21 -4 -27q0 -86 215 -86v-22h-450zM372 1540q0 43 30 72.5t73 29.5 q42 0 71.5 -29t29.5 -73q0 -42 -30 -71t-71 -29q-42 0 -72.5 29.5t-30.5 70.5zM406 465h376l-194 623zM682 1540q0 42 29 72t71 30q43 0 72.5 -29t29.5 -73q0 -42 -30 -71t-72 -29t-71 30t-29 70z" />
<glyph unicode="&#xc5;" horiz-adv-x="1300" d="M60 0v22q158 0 196 122q40 128 125 404t162 526q77 252 81 276q2 6 13 6q12 0 25.5 -9t19.5 -22q22 -64 156.5 -483.5t176 -548.5t87.5 -271h166l-6 -22l-541 -2l2 24h191l-122 412h-396l-97 -299q-4 -21 -4 -27q0 -86 215 -86v-22h-450zM406 465h376l-194 623zM475 1542 q0 76 52.5 127t128.5 51q74 0 126 -51.5t52 -126.5q0 -74 -52 -126t-126 -52q-76 0 -128.5 51.5t-52.5 126.5zM518 1542q0 -54 39 -92.5t92 -38.5q56 0 93.5 38t37.5 93q0 56 -37.5 93.5t-93.5 37.5q-54 0 -92.5 -38t-38.5 -93z" />
<glyph unicode="&#xc6;" horiz-adv-x="1659" d="M33 0v22q16 1 52.5 9.5t80.5 35.5t64 77q30 76 84.5 209.5t167.5 407t181 431.5q69 158 75 158h826v-453h-18q-14 132 -26 197t-52 128.5t-120 83.5q-84 22 -199 23q-29 0 -83.5 -2t-82.5 -2l-29 -6v-569q40 0 96 -1t86 -1q42 0 69 30t38 73t20.5 105.5t12.5 75.5l10 -2 v-610h-12q-8 54 -14 99t-18 86t-38 68t-68 27h-182v-678h166q96 0 174 22t146 79q44 38 68 83.5t35 92.5t16.5 97t13.5 120h12v-518l-1005 -2v26h192l12 23l2 389h-384l-130 -299q-4 -21 -4 -27q0 -86 216 -86v-22h-451zM412 465h380l-4 848z" />
<glyph unicode="&#xc7;" horiz-adv-x="968" d="M43 688q1 218 99 389q44 78 85 131.5t101 92.5t143 55q33 4 49 4q134 0 266 -156l119 140l15 -6v-480h-15q-96 340 -303 463q-32 19 -88 19q-82 0 -121 -40q-99 -103 -137.5 -232.5t-38.5 -295.5q0 -72 9 -206q10 -132 12 -160q10 -158 52 -259.5t152 -150.5 q42 -14 82 -14q68 0 117 30q76 58 126.5 139.5t79.5 169t58 203.5h13v-552q-26 10 -40 28t-37 54t-43 54l-12 8q-102 -124 -200 -146q0 -28 -18 -90q-18 -63 -40 -87q-66 -75 -188 -75q-31 0 -49 2q105 40 139 100q33 62 33 150q-96 20 -174.5 85.5t-126.5 157.5 q-119 234 -119 475z" />
<glyph unicode="&#xc8;" horiz-adv-x="1140" d="M49 -4v26h191l18 23v1274q-34 6 -98 8t-100 2v21h972v-453h-16q-10 103 -17 149t-26 103t-57 99t-99 58q-85 20 -195 21q-16 0 -70 -1t-100 -1l-28 -6v-569q40 0 96 -1t86 -1q55 0 81.5 47t37.5 111t21 126l10 -2v-610h-12q-8 54 -14 99t-18 86t-38 68t-68 27h-182v-674 q29 0 87.5 -2t88.5 -2q98 0 174 21t136 80q40 38 64 85t35 92.5t19 104t14 111.5h12v-518zM475 1594q0 30 4 59q5 29 7 43q0 -20 76 -81.5t155 -116.5t117 -81l-348 111q-10 20 -11 66z" />
<glyph unicode="&#xc9;" horiz-adv-x="1087" d="M22 -4v26h191l19 23v1274q-34 6 -99 8t-100 2v21h973v-453h-17q-14 132 -26.5 197t-52.5 128.5t-120 83.5q-84 20 -194 21q-16 0 -70 -1t-100 -1l-28 -6v-569q40 0 96 -1t86 -1q42 0 68 30t38 73t21 105.5t12 75.5l10 -2v-610h-12q-8 54 -13.5 99t-17.5 86t-38 68t-68 27 h-182v-674q28 0 87 -2t89 -2q98 0 173 21t135 80q42 40 66 85.5t35 91.5t18.5 104.5t14.5 111.5h12v-518zM432 1417q38 26 116 80t155 116q77 63 77 83q2 -13 6 -42.5t4 -59.5q0 -46 -10 -66z" />
<glyph unicode="&#xca;" horiz-adv-x="1128" d="M49 -4v26h191l18 23v1274q-34 6 -98 8t-100 2v21h972v-453h-16q-10 103 -17 149t-26 103t-57 99t-99 58q-85 20 -195 21q-16 0 -70 -1t-100 -1l-28 -6v-569q40 0 96 -1t86 -1q55 0 81.5 47t37.5 111t21 126l10 -2v-610h-12q-8 54 -14 99t-18 86t-38 68t-68 27h-182v-674 q29 0 87.5 -2t88.5 -2q98 0 174 21t136 80q40 38 64 85t35 92.5t19 104t14 111.5h12v-518zM326 1390l288 298l258 -298h-170l-149 189l-178 -189h-49z" />
<glyph unicode="&#xcb;" horiz-adv-x="1114" d="M49 -4v26h191l18 23v1274q-34 6 -98 8t-100 2v21h972v-453h-16q-10 103 -17 149t-26 103t-57 99t-99 58q-85 20 -195 21q-16 0 -70 -1t-100 -1l-28 -6v-569q40 0 96 -1t86 -1q55 0 81.5 47t37.5 111t21 126l10 -2v-610h-12q-8 54 -14 99t-18 86t-38 68t-68 27h-182v-674 q29 0 87.5 -2t88.5 -2q98 0 174 21t136 80q40 38 64 85t35 92.5t19 104t14 111.5h12v-518zM334 1528q0 41 29 70.5t71 29.5q44 0 73 -29t29 -71q0 -44 -30 -73t-72 -29q-41 0 -70.5 30t-29.5 72zM641 1528q0 41 29.5 70.5t73.5 29.5q42 0 71 -29.5t29 -70.5q0 -42 -30 -72 t-70 -30q-42 0 -72.5 30t-30.5 72z" />
<glyph unicode="&#xcc;" horiz-adv-x="676" d="M37 -2v24h186v1307h-186v23h559v-23h-192v-1307h192v-24h-559zM131 1594q0 30 4 59q5 29 7 43q0 -20 76 -81.5t155 -116.5t117 -81l-348 111q-10 20 -11 66z" />
<glyph unicode="&#xcd;" horiz-adv-x="637" d="M37 -2v24h186v1307h-186v23h559v-23h-192v-1307h192v-24h-559zM127 1417q38 26 117 81t155 116q76 62 76 82q2 -13 6.5 -40.5t4.5 -61.5q0 -46 -11 -66z" />
<glyph unicode="&#xce;" horiz-adv-x="649" d="M37 -2v24h186v1307h-186v23h559v-23h-192v-1307h192v-24h-559zM47 1403l289 299l258 -299h-170l-150 189l-178 -189h-49z" />
<glyph unicode="&#xcf;" horiz-adv-x="649" d="M37 -2v24h186v1307h-186v23h559v-23h-192v-1307h192v-24h-559zM82 1540q0 42 29 72t71 30q43 0 71.5 -29t28.5 -73q0 -42 -29 -71t-71 -29t-71 30t-29 70zM389 1540q0 42 29.5 72t73.5 30q42 0 71 -29t29 -73q0 -42 -30 -71q-28 -29 -70 -29t-72.5 30t-30.5 70z" />
<glyph unicode="&#xd1;" horiz-adv-x="1259" d="M58 0v26q78 0 100 4q50 7 76 68.5t33 147.5t7 198v808q0 78 -208 77v23h340l548 -1004v842q0 139 -196 139v23h434v-23q-207 -1 -207 -119v-1210h-25l-657 1200v-1008q-1 -111 137 -155q22 -7 49 -9t41 -2v-28zM258 1442q10 116 67 186t152 74q40 0 72 -19t74.5 -55.5 t75.5 -56t77 -19.5q72 9 118 36.5t91 93.5q-32 -122 -72.5 -185t-126.5 -84q-20 -4 -30 -4q-38 0 -67 20.5t-71 62.5t-74.5 64.5t-76.5 24.5q-76 0 -115 -27t-94 -112z" />
<glyph unicode="&#xd2;" horiz-adv-x="1007" d="M28 684q0 256 124 442q136 206 368 212q96 0 177 -59t139 -145q62 -93 95 -224t33 -273q0 -256 -98 -420q-46 -78 -142 -149.5t-222 -71.5q-125 0 -190 42q-64 40 -140 148q-47 72 -78.5 152t-48.5 169t-17 177zM221 614q0 -242 39 -388q18 -66 41 -95t63 -61 q60 -46 132 -46q74 0 145 50q37 28 69 76.5t36 97.5q12 151 19 259.5t7 211.5q0 277 -55 463q-12 48 -70.5 88t-124.5 40q-100 -2 -157.5 -45t-73.5 -87q-32 -92 -51 -248t-19 -316zM356 1594q0 30 4 59t6 43q0 -20 77.5 -82.5t155.5 -116.5t116 -80l-349 111q-10 20 -10 66 z" />
<glyph unicode="&#xd3;" horiz-adv-x="995" d="M28 684q0 256 124 442q136 206 368 212q96 0 177 -59t139 -145q62 -93 95 -224t33 -273q0 -256 -98 -420q-46 -78 -142 -149.5t-222 -71.5q-125 0 -190 42q-64 40 -140 148q-47 72 -78.5 152t-48.5 169t-17 177zM221 614q0 -242 39 -388q18 -66 41 -95t63 -61 q60 -46 132 -46q74 0 145 50q37 28 69 76.5t36 97.5q12 151 19 259.5t7 211.5q0 277 -55 463q-12 48 -70.5 88t-124.5 40q-100 -2 -157.5 -45t-73.5 -87q-32 -92 -51 -248t-19 -316zM312 1405q38 26 117 81t155 116q76 62 76 82q2 -14 6 -43t4 -60q0 -47 -10 -67z" />
<glyph unicode="&#xd4;" horiz-adv-x="1007" d="M28 684q0 256 124 442q136 206 368 212q96 0 177 -59t139 -145q62 -93 95 -224t33 -273q0 -256 -98 -420q-46 -78 -142 -149.5t-222 -71.5q-125 0 -190 42q-64 40 -140 148q-47 72 -78.5 152t-48.5 169t-17 177zM219 1376l289 300l258 -300h-170l-148 188l-180 -188h-49z M221 614q0 -242 39 -388q18 -66 41 -95t63 -61q60 -46 132 -46q74 0 145 50q37 28 69 76.5t36 97.5q12 151 19 259.5t7 211.5q0 277 -55 463q-12 48 -70.5 88t-124.5 40q-100 -2 -157.5 -45t-73.5 -87q-32 -92 -51 -248t-19 -316z" />
<glyph unicode="&#xd5;" horiz-adv-x="1659" d="M28 684q0 256 124 442q136 206 368 212q96 0 177 -59t139 -145q62 -93 95 -224t33 -273q0 -256 -98 -420q-46 -78 -142 -149.5t-222 -71.5q-125 0 -190 42q-64 40 -140 148q-47 72 -78.5 152t-48.5 169t-17 177zM221 614q0 -242 39 -388q18 -66 41 -95t63 -61 q60 -46 132 -46q74 0 145 50q37 28 69 76.5t36 97.5q12 151 19 259.5t7 211.5q0 277 -55 463q-12 48 -70.5 88t-124.5 40q-100 -2 -157.5 -45t-73.5 -87q-32 -92 -51 -248t-19 -316z" />
<glyph unicode="&#xd6;" horiz-adv-x="995" d="M28 684q0 256 124 442q136 206 368 212q96 0 177 -59t139 -145q62 -93 95 -224t33 -273q0 -256 -98 -420q-46 -78 -142 -149.5t-222 -71.5q-125 0 -190 42q-64 40 -140 148q-47 72 -78.5 152t-48.5 169t-17 177zM221 614q0 -242 39 -388q18 -66 41 -95t63 -61 q60 -46 132 -46q74 0 145 50q37 28 69 76.5t36 97.5q12 151 19 259.5t7 211.5q0 277 -55 463q-12 48 -70.5 88t-124.5 40q-100 -2 -157.5 -45t-73.5 -87q-32 -92 -51 -248t-19 -316zM254 1528q0 41 29 70.5t71 29.5q43 0 72.5 -29t29.5 -71q0 -44 -30 -73t-72 -29t-71 30 t-29 72zM561 1528q0 41 29.5 70.5t73.5 29.5q42 0 71 -29t29 -71q0 -44 -30 -73q-28 -29 -70 -29t-72.5 30t-30.5 72z" />
<glyph unicode="&#xd8;" horiz-adv-x="1020" d="M-28 0l1009 1352h86l-1001 -1352h-94zM28 684q0 256 124 442q136 206 368 212q96 0 177 -59t139 -145q62 -93 95 -224t33 -273q0 -256 -98 -420q-46 -78 -142 -149.5t-222 -71.5q-125 0 -190 42q-64 40 -140 148q-47 72 -78.5 152t-48.5 169t-17 177zM221 614 q0 -242 39 -388q18 -66 41 -95t63 -61q60 -46 132 -46q74 0 145 50q37 28 69 76.5t36 97.5q12 151 19 259.5t7 211.5q0 277 -55 463q-12 48 -70.5 88t-124.5 40q-100 -2 -157.5 -45t-73.5 -87q-32 -92 -51 -248t-19 -316z" />
<glyph unicode="&#xd9;" horiz-adv-x="1327" d="M74 1329l2 23h557v-23h-203v-1116q0 -61 42 -107t106 -69q60 -21 124 -21q96 0 181 39t115 107q22 60 22 166v854q0 152 -172 151q-20 0 -34 -1.5t-20 -2.5v25h478v-23q-218 0 -218 -137v-924q0 -138 -140 -227q-76 -47 -212 -47q-88 0 -171.5 23t-139.5 67 q-125 96 -125 232v1011h-192zM490 1594q0 30 4 59t6 43q0 -20 77 -82.5t155 -116.5t116 -80l-348 111q-10 20 -10 66z" />
<glyph unicode="&#xda;" horiz-adv-x="1313" d="M74 1329l2 23h557v-23h-203v-1116q0 -61 42 -107t106 -69q60 -21 124 -21q96 0 181 39t115 107q22 60 22 166v854q0 152 -172 151q-20 0 -34 -1.5t-20 -2.5v25h478v-23q-218 0 -218 -137v-924q0 -138 -140 -227q-76 -47 -212 -47q-88 0 -171.5 23t-139.5 67 q-125 96 -125 232v1011h-192zM551 1405q38 26 117 81t155 116q76 62 76 82q2 -14 6.5 -41.5t4.5 -61.5q0 -47 -11 -67z" />
<glyph unicode="&#xdb;" horiz-adv-x="1313" d="M74 1329l2 23h557v-23h-203v-1116q0 -61 42 -107t106 -69q60 -21 124 -21q96 0 181 39t115 107q22 60 22 166v854q0 152 -172 151q-20 0 -34 -1.5t-20 -2.5v25h478v-23q-218 0 -218 -137v-924q0 -138 -140 -227q-76 -47 -212 -47q-88 0 -171.5 23t-139.5 67 q-125 96 -125 232v1011h-192zM432 1403l287 299l260 -299h-170l-149 189l-178 -189h-50z" />
<glyph unicode="&#xdc;" horiz-adv-x="1327" d="M74 1329l2 23h557v-23h-203v-1116q0 -61 42 -107t106 -69q60 -21 124 -21q96 0 181 39t115 107q22 60 22 166v854q0 152 -172 151q-20 0 -34 -1.5t-20 -2.5v25h478v-23q-218 0 -218 -137v-924q0 -138 -140 -227q-76 -47 -212 -47q-88 0 -171.5 23t-139.5 67 q-125 96 -125 232v1011h-192zM452 1540q0 42 29 72t72 30q44 0 73.5 -29t29.5 -73q0 -42 -30 -71t-73 -29q-42 0 -71.5 30t-29.5 70zM762 1540q0 42 29 72t71 30q44 0 72 -29t28 -73q0 -42 -29 -71t-71 -29q-41 0 -70.5 30t-29.5 70z" />
<glyph unicode="&#xe0;" horiz-adv-x="837" d="M39 274q9 114 117 182q41 26 152.5 54t143.5 38q34 10 36 40q10 102 10 127q0 154 -123 182q-84 0 -135.5 -15.5t-83.5 -57.5q4 -17 27.5 -30t43 -24.5t21.5 -31.5q0 -49 -10 -70q-10 -20 -42 -23q-46 0 -73 9.5t-39 39.5q-6 21 -6 39q0 62 64 115q84 72 202 72 q59 0 123 -23q114 -40 139 -135q37 -123 37 -291q0 -42 -1.5 -84t-4.5 -99t-6 -121.5t-3 -104.5q4 -32 50 -32q28 0 47 13q49 38 55 160h16q-4 -78 -23 -128.5t-71 -66.5q-31 -10 -57 -10q-66 0 -100 49q-39 62 -51 127q-70 -148 -182 -170q-30 -6 -60 -6q-74 0 -129 49 q-84 79 -84 227zM176 266q0 -78 29 -176q8 -24 35 -42t57 -18q24 0 47 13q54 36 83.5 87.5t40.5 113t12.5 133t3.5 137.5l-21 18q-28 -19 -79 -31.5t-90.5 -22.5t-57.5 -30q-60 -65 -60 -182zM213 1196q0 30 3 60q4 28 7 42q0 -20 77.5 -82t155.5 -116t116 -80l-349 108 q-10 20 -10 68z" />
<glyph unicode="&#xe1;" horiz-adv-x="829" d="M39 274q9 114 117 182q41 26 152.5 54t143.5 38q34 10 36 40q10 102 10 127q0 154 -123 182q-84 0 -135.5 -15.5t-83.5 -57.5q4 -17 27.5 -30t43 -24.5t21.5 -31.5q0 -49 -10 -70q-10 -20 -42 -23q-46 0 -73 9.5t-39 39.5q-6 21 -6 39q0 62 64 115q84 72 202 72 q59 0 123 -23q114 -40 139 -135q37 -123 37 -291q0 -42 -1.5 -84t-4.5 -99t-6 -121.5t-3 -104.5q4 -32 50 -32q28 0 47 13q49 38 55 160h16q-4 -78 -23 -128.5t-71 -66.5q-31 -10 -57 -10q-66 0 -100 49q-39 62 -51 127q-70 -148 -182 -170q-30 -6 -60 -6q-74 0 -129 49 q-84 79 -84 227zM176 266q0 -78 29 -176q8 -24 35 -42t57 -18q24 0 47 13q54 36 83.5 87.5t40.5 113t12.5 133t3.5 137.5l-21 18q-28 -19 -79 -31.5t-90.5 -22.5t-57.5 -30q-60 -65 -60 -182zM240 1020q38 26 116 80t155 116t77 82q3 -14 7.5 -43t4.5 -59q0 -43 -12 -68z " />
<glyph unicode="&#xe2;" horiz-adv-x="835" d="M39 274q9 114 117 182q41 26 152.5 54t143.5 38q34 10 36 40q10 102 10 127q0 154 -123 182q-84 0 -135.5 -15.5t-83.5 -57.5q4 -17 27.5 -30t43 -24.5t21.5 -31.5q0 -49 -10 -70q-10 -20 -42 -23q-46 0 -73 9.5t-39 39.5q-6 21 -6 39q0 62 64 115q84 72 202 72 q59 0 123 -23q114 -40 139 -135q37 -123 37 -291q0 -42 -1.5 -84t-4.5 -99t-6 -121.5t-3 -104.5q4 -32 50 -32q28 0 47 13q49 38 55 160h16q-4 -78 -23 -128.5t-71 -66.5q-31 -10 -57 -10q-66 0 -100 49q-39 62 -51 127q-70 -148 -182 -170q-30 -6 -60 -6q-74 0 -129 49 q-84 79 -84 227zM129 1006l289 296l258 -296h-168l-150 188l-180 -188h-49zM176 266q0 -78 29 -176q8 -24 35 -42t57 -18q24 0 47 13q54 36 83.5 87.5t40.5 113t12.5 133t3.5 137.5l-21 18q-28 -19 -79 -31.5t-90.5 -22.5t-57.5 -30q-60 -65 -60 -182z" />
<glyph unicode="&#xe3;" horiz-adv-x="835" d="M39 274q9 114 117 182q41 26 152.5 54t143.5 38q34 10 36 40q10 102 10 127q0 154 -123 182q-84 0 -135.5 -15.5t-83.5 -57.5q4 -17 27.5 -30t43 -24.5t21.5 -31.5q0 -49 -10 -70q-10 -20 -42 -23q-46 0 -73 9.5t-39 39.5q-6 21 -6 39q0 62 64 115q84 72 202 72 q59 0 123 -23q114 -40 139 -135q37 -123 37 -291q0 -42 -1.5 -84t-4.5 -99t-6 -121.5t-3 -104.5q4 -32 50 -32q28 0 47 13q49 38 55 160h16q-4 -78 -23 -128.5t-71 -66.5q-31 -10 -57 -10q-66 0 -100 49q-39 62 -51 127q-70 -148 -182 -170q-30 -6 -60 -6q-74 0 -129 49 q-84 79 -84 227zM49 964q10 118 67.5 187t151.5 73q40 0 72 -18.5t74 -55t76 -56t78 -19.5q73 8 117.5 35.5t90.5 93.5q-32 -121 -72 -183.5t-126 -84.5q-20 -4 -31 -4q-38 0 -66.5 20t-70.5 62t-75 65t-77 25q-76 0 -115 -27t-94 -113zM176 266q0 -78 29 -176q8 -24 35 -42 t57 -18q24 0 47 13q54 36 83.5 87.5t40.5 113t12.5 133t3.5 137.5l-21 18q-28 -19 -79 -31.5t-90.5 -22.5t-57.5 -30q-60 -65 -60 -182z" />
<glyph unicode="&#xe4;" horiz-adv-x="846" d="M39 274q9 114 117 182q41 26 152.5 54t143.5 38q34 10 36 40q10 102 10 127q0 154 -123 182q-84 0 -135.5 -15.5t-83.5 -57.5q4 -17 27.5 -30t43 -24.5t21.5 -31.5q0 -49 -10 -70q-10 -20 -42 -23q-46 0 -73 9.5t-39 39.5q-6 21 -6 39q0 62 64 115q84 72 202 72 q59 0 123 -23q114 -40 139 -135q37 -123 37 -291q0 -42 -1.5 -84t-4.5 -99t-6 -121.5t-3 -104.5q4 -32 50 -32q28 0 47 13q49 38 55 160h16q-4 -78 -23 -128.5t-71 -66.5q-31 -10 -57 -10q-66 0 -100 49q-39 62 -51 127q-70 -148 -182 -170q-30 -6 -60 -6q-74 0 -129 49 q-84 79 -84 227zM108 1128q0 43 29 73t72 30t71.5 -29.5t28.5 -73.5q0 -42 -29 -71t-71 -29t-71.5 29t-29.5 71zM176 266q0 -78 29 -176q8 -24 35 -42t57 -18q24 0 47 13q54 36 83.5 87.5t40.5 113t12.5 133t3.5 137.5l-21 18q-28 -19 -79 -31.5t-90.5 -22.5t-57.5 -30 q-60 -65 -60 -182zM416 1128q0 43 29.5 73t72.5 30q42 0 71 -29.5t29 -73.5q0 -42 -29 -71t-71 -29t-72 29t-30 71z" />
<glyph unicode="&#xe5;" horiz-adv-x="835" d="M39 274q9 114 117 182q41 26 152.5 54t143.5 38q34 10 36 40q10 102 10 127q0 154 -123 182q-84 0 -135.5 -15.5t-83.5 -57.5q4 -17 27.5 -30t43 -24.5t21.5 -31.5q0 -49 -10 -70q-10 -20 -42 -23q-46 0 -73 9.5t-39 39.5q-6 21 -6 39q0 62 64 115q84 72 202 72 q59 0 123 -23q114 -40 139 -135q37 -123 37 -291q0 -42 -1.5 -84t-4.5 -99t-6 -121.5t-3 -104.5q4 -32 50 -32q28 0 47 13q49 38 55 160h16q-4 -78 -23 -128.5t-71 -66.5q-31 -10 -57 -10q-66 0 -100 49q-39 62 -51 127q-70 -148 -182 -170q-30 -6 -60 -6q-74 0 -129 49 q-84 79 -84 227zM176 266q0 -78 29 -176q8 -24 35 -42t57 -18q24 0 47 13q54 36 83.5 87.5t40.5 113t12.5 133t3.5 137.5l-21 18q-28 -19 -79 -31.5t-90.5 -22.5t-57.5 -30q-60 -65 -60 -182zM184 1145q0 73 53 125.5t125 52.5q76 0 128 -52.5t52 -125.5q0 -76 -52 -128.5 t-128 -52.5q-74 0 -126 53t-52 128zM228 1145q0 -55 38 -93t92 -38q55 0 93.5 38t38.5 93q0 54 -39 92.5t-93 38.5t-92 -39t-38 -92z" />
<glyph unicode="&#xe6;" horiz-adv-x="1202" d="M39 274q9 114 117 182q41 26 152.5 54t143.5 38q34 10 36 40q10 102 10 127q0 154 -123 182q-84 0 -135.5 -15.5t-83.5 -57.5q4 -14 14.5 -22t33 -18t33.5 -20t11 -26q0 -50 -10 -72q-10 -21 -42 -21q-46 0 -73 9.5t-39 39.5q-6 21 -6 39q0 62 64 115q84 72 202 72 q60 0 123 -23q102 -37 133 -117q51 60 127 102q71 22 115 23q42 0 76 -18q94 -43 155 -149q61 -101 61 -271h-489q0 -106 5.5 -193.5t23.5 -163.5q20 -88 137 -106q33 -4 47 -4q116 0 180 80q74 92 90 190h17q-33 -191 -172 -266q-35 -16 -195 -16q-71 6 -132 30t-89 48 q-51 40 -63 108q-70 -148 -182 -170q-30 -6 -60 -6q-74 0 -129 49q-84 79 -84 227zM176 266q0 -78 29 -176q8 -24 35 -42t57 -18q24 0 47 13q54 36 83.5 87.5t40.5 113t12.5 133t3.5 137.5l-21 18q-28 -19 -79 -31.5t-90.5 -22.5t-57.5 -30q-60 -65 -60 -182zM645 494h351 v78q0 98 -13.5 167.5t-56.5 114.5q-44 28 -102 28q-36 0 -76 -14q-66 -50 -84.5 -143t-18.5 -231z" />
<glyph unicode="&#xe7;" horiz-adv-x="727" d="M33 461q1 267 211 405q66 44 154 44q78 0 141 -37.5t83 -106.5q22 -74 23 -100q-1 -40 -29 -66q-42 -35 -78 -35q-18 1 -34 9q-58 26 -58 82q0 16 10 36q24 60 80 60q28 0 58 -21q0 99 -112 149q-42 16 -76 17q-42 -1 -94 -27q-74 -42 -95 -141.5t-21 -261.5 q0 -124 4 -197t20 -130.5t48 -83.5q50 -44 134 -44q41 0 73 8q175 42 209 306h10q-16 -220 -149 -298q-58 -32 -121 -32q0 -66 -9.5 -100t-35.5 -66q-39 -44 -183 -56q64 24 88.5 37.5t48 56t31.5 124.5q-52 0 -102 30q-229 130 -229 439z" />
<glyph unicode="&#xe8;" horiz-adv-x="737" d="M33 422q0 48 6 94q12 84 36.5 151t72.5 123q46 56 120 92q48 26 96 26q34 0 95 -21q54 -20 88.5 -56.5t66.5 -92.5q62 -102 62 -271h-490q0 -220 29 -346q19 -77 137 -107q26 -6 54 -6q108 0 174 82q72 88 92 190h14q-36 -208 -170 -266q-46 -22 -110 -22q-78 0 -156 38 q-217 103 -217 392zM186 494h350q0 18 1 52.5t1 53.5q0 178 -71 254q-43 43 -97 43q-45 -1 -79 -29q-67 -53 -86 -130.5t-19 -192.5v-51zM223 1196q0 30 4 60q5 28 7 42q0 -20 76 -81t155 -116t117 -81l-348 108q-10 22 -11 68z" />
<glyph unicode="&#xe9;" horiz-adv-x="737" d="M33 422q0 48 6 94q12 84 36.5 151t72.5 123q46 56 120 92q48 26 96 26q34 0 95 -21q54 -20 88.5 -56.5t66.5 -92.5q62 -102 62 -271h-490q0 -220 29 -346q19 -77 137 -107q26 -6 54 -6q108 0 174 82q72 88 92 190h14q-36 -208 -170 -266q-46 -22 -110 -22q-78 0 -156 38 q-217 103 -217 392zM186 494h350q0 18 1 52.5t1 53.5q0 178 -71 254q-43 43 -97 43q-45 -1 -79 -29q-67 -53 -86 -130.5t-19 -192.5v-51zM219 1020q38 26 116 80t155.5 116t77.5 82q2 -14 6 -43t4 -59q0 -48 -10 -68z" />
<glyph unicode="&#xea;" horiz-adv-x="727" d="M33 422q0 48 6 94q12 84 36.5 151t72.5 123q46 56 120 92q48 26 96 26q34 0 95 -21q54 -20 88.5 -56.5t66.5 -92.5q62 -102 62 -271h-490q0 -220 29 -346q19 -77 137 -107q26 -6 54 -6q108 0 174 82q72 88 92 190h14q-36 -208 -170 -266q-46 -22 -110 -22q-78 0 -156 38 q-217 103 -217 392zM70 1006l288 296l258 -296h-168l-149 188l-180 -188h-49zM186 494h350q0 18 1 52.5t1 53.5q0 178 -71 254q-43 43 -97 43q-45 -1 -79 -29q-67 -53 -86 -130.5t-19 -192.5v-51z" />
<glyph unicode="&#xeb;" horiz-adv-x="727" d="M33 422q0 48 6 94q12 84 36.5 151t72.5 123q46 56 120 92q48 26 96 26q34 0 95 -21q54 -20 88.5 -56.5t66.5 -92.5q62 -102 62 -271h-490q0 -220 29 -346q19 -77 137 -107q26 -6 54 -6q108 0 174 82q72 88 92 190h14q-36 -208 -170 -266q-46 -22 -110 -22q-78 0 -156 38 q-217 103 -217 392zM108 1128q0 43 29 73t72 30t71.5 -29.5t28.5 -73.5q0 -42 -29 -71t-71 -29t-71.5 29t-29.5 71zM186 494h350q0 18 1 52.5t1 53.5q0 178 -71 254q-43 43 -97 43q-45 -1 -79 -29q-67 -53 -86 -130.5t-19 -192.5v-51zM416 1128q0 43 29.5 73t72.5 30 q42 0 71 -29.5t29 -73.5q0 -42 -29 -71t-71 -29t-72 29t-30 71z" />
<glyph unicode="&#xec;" horiz-adv-x="547" d="M49 884v26h287v-888h137v-24h-411v24h138v862h-151zM104 1196q0 30 4 60l6 42q0 -20 77.5 -82t155.5 -116t116 -80l-349 108q-10 20 -10 68z" />
<glyph unicode="&#xed;" horiz-adv-x="557" d="M49 884v26h287v-888h137v-24h-411v24h138v862h-151zM108 1020q38 26 117 81t155 116t76 81q3 -14 8 -41t5 -61q-1 -44 -13 -68z" />
<glyph unicode="&#xee;" horiz-adv-x="547" d="M-20 1006l288 296l258 -296h-168l-149 188l-179 -188h-50zM49 884v26h287v-888h137v-24h-411v24h138v862h-151z" />
<glyph unicode="&#xef;" horiz-adv-x="547" d="M6 1166q0 39 28 67.5t68 28.5t68 -28t28 -68t-28 -67.5t-68 -27.5t-68 27.5t-28 67.5zM49 884v26h287v-888h137v-24h-411v24h138v862h-151zM295 1166q0 39 28 67.5t68 28.5t68.5 -28t28.5 -68t-28.5 -67.5t-68.5 -27.5t-68 27.5t-28 67.5z" />
<glyph unicode="&#xf1;" horiz-adv-x="1024" d="M47 842q4 0 4 14q0 8 -4 10h295l-2 -174q42 68 76 111t81.5 72.5t110.5 29.5q62 0 116 -31t86 -83.5t32 -112.5v-656h129v-22h-418v22h147l-2 660q0 75 -16 123.5t-68 64.5q-20 8 -44 8q-74 0 -124 -69q-104 -140 -104 -248l-2 -539h135v-22l-422 -4v26h147v820h-153z M150 1006q10 116 67 185t151 73q40 0 71.5 -19t74 -56t76.5 -56t78 -19q72 10 117 37.5t91 91.5q-32 -121 -72.5 -184t-127.5 -84q-21 -4 -31 -4q-37 0 -65 19.5t-69.5 62.5t-75.5 66.5t-77 25.5q-50 0 -80.5 -9.5t-59.5 -39.5q-28 -28 -68 -90z" />
<glyph unicode="&#xf2;" horiz-adv-x="745" d="M43 438q0 122 39.5 232t116.5 177t182 67q106 0 183 -68t116 -176t39 -224q-1 -112 -41 -216t-117 -169t-180 -65q-102 0 -177.5 63.5t-116.5 165t-44 213.5zM186 448q0 -150 12 -238t55 -138t130 -50q88 0 130.5 48.5t54.5 136t12 241.5q0 156 -11 246t-53.5 143.5 t-132.5 53.5t-132 -50t-53.5 -138.5t-11.5 -254.5zM262 1196q0 30 5 60q5 28 7 42q0 -20 76 -81t155 -116t117 -81l-348 108q-12 24 -12 68z" />
<glyph unicode="&#xf3;" horiz-adv-x="755" d="M43 438q0 122 39.5 232t116.5 177t182 67q106 0 183 -68t116 -176t39 -224q-1 -112 -41 -216t-117 -169t-180 -65q-102 0 -177.5 63.5t-116.5 165t-44 213.5zM186 448q0 -150 12 -238t55 -138t130 -50q88 0 130.5 48.5t54.5 136t12 241.5q0 156 -11 246t-53.5 143.5 t-132.5 53.5t-132 -50t-53.5 -138.5t-11.5 -254.5zM188 1020q38 26 117 81t155 116t76 81q2 -14 6.5 -41t4.5 -61q-1 -48 -11 -68z" />
<glyph unicode="&#xf4;" horiz-adv-x="745" d="M43 438q0 122 39.5 232t116.5 177t182 67q106 0 183 -68t116 -176t39 -224q-1 -112 -41 -216t-117 -169t-180 -65q-102 0 -177.5 63.5t-116.5 165t-44 213.5zM140 1006l288 296l258 -296h-168l-150 188l-180 -188h-48zM186 448q0 -150 12 -238t55 -138t130 -50 q88 0 130.5 48.5t54.5 136t12 241.5q0 156 -11 246t-53.5 143.5t-132.5 53.5t-132 -50t-53.5 -138.5t-11.5 -254.5z" />
<glyph unicode="&#xf5;" horiz-adv-x="755" d="M43 438q0 122 39.5 232t116.5 177t182 67q106 0 183 -68t116 -176t39 -224q-1 -112 -41 -216t-117 -169t-180 -65q-102 0 -177.5 63.5t-116.5 165t-44 213.5zM60 964q9 117 66.5 186.5t151.5 73.5q40 0 71.5 -18.5t74 -55t76.5 -56t78 -19.5q72 8 117 35.5t91 93.5 q-32 -120 -73 -183t-125 -85q-21 -4 -31 -4q-38 0 -67 20t-69.5 61.5t-74.5 65t-78 25.5q-76 0 -115 -27t-93 -113zM186 448q0 -150 12 -238t55 -138t130 -50q88 0 130.5 48.5t54.5 136t12 241.5q0 156 -11 246t-53.5 143.5t-132.5 53.5t-132 -50t-53.5 -138.5t-11.5 -254.5 z" />
<glyph unicode="&#xf6;" horiz-adv-x="755" d="M43 438q0 122 39.5 232t116.5 177t182 67q106 0 183 -68t116 -176t39 -224q-1 -112 -41 -216t-117 -169t-180 -65q-102 0 -177.5 63.5t-116.5 165t-44 213.5zM108 1128q0 43 29 73t72 30t71.5 -29.5t28.5 -73.5q0 -42 -29 -71t-71 -29t-71.5 29t-29.5 71zM186 448 q0 -150 12 -238t55 -138t130 -50q88 0 130.5 48.5t54.5 136t12 241.5q0 156 -11 246t-53.5 143.5t-132.5 53.5t-132 -50t-53.5 -138.5t-11.5 -254.5zM416 1128q0 43 29.5 73t72.5 30q42 0 71 -29.5t29 -73.5q0 -42 -29 -71t-71 -29t-72 29t-30 71z" />
<glyph unicode="&#xf8;" horiz-adv-x="901" d="M2 -62l826 1108h71l-819 -1108h-78zM123 438q0 122 39.5 232t116.5 177t182 67q106 0 182.5 -68t115.5 -176t39 -224q-1 -112 -40.5 -216t-116.5 -169t-180 -65q-102 0 -177.5 63.5t-116.5 165t-44 213.5zM266 448q0 -150 12 -238t55 -138t130 -50q88 0 130.5 48.5 t54.5 136t12 241.5q0 156 -12 246.5t-54.5 143.5t-130.5 53q-90 0 -132.5 -50t-53.5 -139q-11 -90 -11 -254z" />
<glyph unicode="&#xf9;" horiz-adv-x="1016" d="M58 880v28h278v-764q0 -59 42 -94.5t85 -35.5q19 0 27 6q90 48 146 137.5t56 190.5v536h-166v26h300v-888h145v-22h-277l-2 215q-64 -102 -132 -162.5t-173 -60.5q-197 24 -197 158v730h-132zM324 1196q0 30 4 60l6 42q0 -20 76 -81t155 -116t117 -81l-348 108 q-10 20 -10 68z" />
<glyph unicode="&#xfa;" horiz-adv-x="1024" d="M58 880v28h278v-764q0 -59 42 -94.5t85 -35.5q19 0 27 6q90 48 146 137.5t56 190.5v536h-166v26h300v-888h145v-22h-277l-2 215q-64 -102 -132 -162.5t-173 -60.5q-197 24 -197 158v730h-132zM299 1020q38 26 117 81t155 116t76 81q2 -14 6.5 -41t4.5 -61q0 -48 -11 -68z " />
<glyph unicode="&#xfb;" horiz-adv-x="1024" d="M58 880v28h278v-764q0 -59 42 -94.5t85 -35.5q19 0 27 6q90 48 146 137.5t56 190.5v536h-166v26h300v-888h145v-22h-277l-2 215q-64 -102 -132 -162.5t-173 -60.5q-197 24 -197 158v730h-132zM219 1006l289 296l258 -296h-170l-148 188l-180 -188h-49z" />
<glyph unicode="&#xfc;" horiz-adv-x="1024" d="M58 880v28h278v-764q0 -59 42 -94.5t85 -35.5q19 0 27 6q90 48 146 137.5t56 190.5v536h-166v26h300v-888h145v-22h-277l-2 215q-64 -102 -132 -162.5t-173 -60.5q-197 24 -197 158v730h-132zM228 1128q0 42 29 72.5t71 30.5q44 0 73 -29.5t29 -73.5q0 -42 -30 -71 t-72 -29q-41 0 -70.5 29t-29.5 71zM536 1128q0 43 29 73t72 30q42 0 71 -30q30 -31 30 -73t-30 -71t-71 -29q-42 0 -71.5 29t-29.5 71z" />
<glyph unicode="&#xff;" horiz-adv-x="981" d="M22 880v25h424v-25h-145l264 -667l197 551q6 21 6 37q0 83 -154 83v24h322q-4 -9 -4 -13t1.5 -6.5t2.5 -4.5q-48 0 -82 -18t-56 -74l-342 -964q-28 -90 -124 -129q-14 -6 -46 -6q-58 1 -102 35q-62 48 -61 110q0 26 8 46q24 64 88 63q20 -1 37 -9q20 -9 34 -31 q13 -23 13 -49q0 -8 -4 -24q-9 -28 -32 -45t-52 -17q-11 0 -29 5q-8 2 -13 4.5t-9 3.5q16 -38 48 -59t68 -21q31 1 52 11q40 16 67 47.5t44 74t31 98.5t20 84l-346 860h-126zM293 1128q0 42 29.5 72.5t73.5 30.5q42 0 71 -29.5t29 -73.5q0 -42 -30 -71t-70 -29 q-42 0 -72.5 29t-30.5 71zM602 1128q0 42 29 72.5t71 30.5q44 0 73.5 -29.5t29.5 -73.5q0 -42 -30 -71q-31 -29 -73 -29t-71 29t-29 71z" />
<glyph unicode="&#x152;" horiz-adv-x="1659" d="M28 684q0 256 124 442q144 218 368 218q76 0 76 6h968v-453h-18q-14 132 -26 197t-52 128.5t-120 83.5q-84 22 -199 23q-29 0 -83.5 -2t-82.5 -2l-29 -6v-539q0 -4 3 -14t3 -16q39 0 93.5 -1t82.5 -1q42 0 69 30t38 73t20.5 105.5t12.5 75.5l10 -2v-610h-12q-8 54 -14 99 t-18 86t-38 68t-68 27h-186q0 -28 1 -109t2 -243t1 -223v-99q28 0 88 -2q58 -2 90 -2q96 0 172 21t136 80q41 39 65.5 85t35.5 92.5t17.5 99t14.5 116.5h12v-518l-1005 -2v8q-12 0 -38 -4t-40 -4q-125 0 -190 42q-64 40 -140 148q-47 72 -78.5 152t-48.5 169t-17 177z M221 614q0 -242 39 -388q18 -66 41 -95t63 -61q60 -46 132 -46q74 0 145 50q37 28 69 76.5t36 97.5q12 151 19 259.5t7 211.5q0 277 -55 463q-12 48 -70.5 88t-124.5 40q-100 0 -157.5 -44t-73.5 -88q-32 -92 -51 -248t-19 -316z" />
<glyph unicode="&#x153;" horiz-adv-x="1274" d="M43 438q0 122 39.5 232t116 177t182.5 67q168 0 266 -172q56 93 160 151q67 21 115 21q46 0 76 -17q93 -43 155 -149q61 -106 61 -273h-489q1 -228 29 -354q18 -77 137 -107q26 -6 53 -6q108 0 174 82q74 92 90 190h16q-32 -192 -172 -266q-48 -24 -102 -24 q-78 0 -162 43q-92 47 -143 125q-98 -162 -264 -162q-102 0 -177.5 63.5t-116.5 165t-44 213.5zM186 448q0 -150 12 -238t54.5 -138t130.5 -50q74 0 115.5 34.5t59.5 101t22 168.5q-10 62 -10 110q0 44 6 90q0 4 2 12t2 11q0 170 -42 256t-155 86q-90 0 -132 -50 t-53.5 -138.5t-11.5 -254.5zM725 504h350v78q0 98 -13.5 167t-55.5 115q-42 26 -107 27q-37 -1 -71 -13q-67 -49 -85 -141.5t-18 -232.5z" />
<glyph unicode="&#x178;" horiz-adv-x="1286" d="M58 1327v21h573v-21h-215l315 -625l207 480q14 32 14 57q0 90 -192 90v23h464v-23q-180 0 -260 -180l-220 -500v-627h210v-26l-569 4v22h195v650l-340 655h-182zM426 1554q0 40 30 70q28 31 70 31t72 -29.5t30 -71.5q0 -44 -30 -73t-72 -29t-71 30t-29 72zM735 1554 q0 40 30 70q31 31 71 31q42 0 71 -29.5t29 -71.5q0 -44 -29 -73t-71 -29q-40 0 -70.5 30t-30.5 72z" />
<glyph unicode="&#x2000;" horiz-adv-x="861" />
<glyph unicode="&#x2001;" horiz-adv-x="1722" />
<glyph unicode="&#x2002;" horiz-adv-x="861" />
<glyph unicode="&#x2003;" horiz-adv-x="1722" />
<glyph unicode="&#x2004;" horiz-adv-x="574" />
<glyph unicode="&#x2005;" horiz-adv-x="430" />
<glyph unicode="&#x2006;" horiz-adv-x="287" />
<glyph unicode="&#x2007;" horiz-adv-x="287" />
<glyph unicode="&#x2008;" horiz-adv-x="215" />
<glyph unicode="&#x2009;" horiz-adv-x="344" />
<glyph unicode="&#x200a;" horiz-adv-x="95" />
<glyph unicode="&#x2010;" d="M82 631q18 26 29 67.5t14 63.5h518q-22 -18 -31 -58t-10 -63z" />
<glyph unicode="&#x2011;" d="M82 631q18 26 29 67.5t14 63.5h518q-22 -18 -31 -58t-10 -63z" />
<glyph unicode="&#x2012;" d="M82 631q18 26 29 67.5t14 63.5h518q-22 -18 -31 -58t-10 -63z" />
<glyph unicode="&#x2013;" horiz-adv-x="809" d="M68 631q20 28 30 68.5t12 62.5h628q-22 -18 -31 -58t-11 -63z" />
<glyph unicode="&#x2014;" horiz-adv-x="1075" d="M94 631q20 28 30 68.5t13 62.5h852q-24 -19 -32.5 -58.5t-10.5 -62.5z" />
<glyph unicode="&#x2018;" horiz-adv-x="307" d="M47 1010q0 184 166 342h17q-34 -44 -58.5 -75t-45 -66t-33.5 -77t-13 -92q34 30 74 31q32 -1 53 -19q51 -42 51 -88q0 -16 -6 -30q-23 -69 -88 -72q-36 0 -69 17.5t-39 48.5q-8 34 -9 80z" />
<glyph unicode="&#x2019;" horiz-adv-x="307" d="M45 1237q0 17 6 31q24 68 89 70q38 0 70 -17t38 -49q8 -36 8 -80q0 -184 -166 -342h-16q26 34 54 70t49 72.5t33.5 77.5t12.5 91q-31 -33 -75 -33q-28 0 -52 19q-52 40 -51 90z" />
<glyph unicode="&#x201a;" horiz-adv-x="299" d="M45 142q0 16 6 30q23 66 89 72q37 0 69.5 -17t38.5 -49q8 -36 8 -80q0 -184 -166 -342h-16q30 39 56 72.5t47 69t33.5 77t12.5 91.5q-33 -30 -73 -31q-30 0 -54 18q-52 43 -51 89z" />
<glyph unicode="&#x201c;" horiz-adv-x="555" d="M47 1010q0 184 166 342h17q-34 -44 -58.5 -75t-45 -66t-33.5 -77t-13 -92q34 30 74 31q32 -1 53 -19q51 -42 51 -88q0 -16 -6 -30q-23 -69 -88 -72q-36 0 -69 17.5t-39 48.5q-8 34 -9 80zM295 1008q0 184 168 344h14q-34 -44 -58.5 -75t-45 -66t-33 -77t-12.5 -92 q34 30 76 31q30 -1 52 -19q52 -44 52 -90q0 -14 -6 -28q-26 -69 -88 -72q-36 0 -70 17t-41 49q-8 36 -8 78z" />
<glyph unicode="&#x201d;" horiz-adv-x="547" d="M45 1237q0 17 6 31q24 68 89 70q38 0 70 -17t38 -49q8 -36 8 -80q0 -184 -166 -342h-16q26 34 54 70t49 72.5t33.5 77.5t12.5 91q-31 -33 -75 -33q-28 0 -52 19q-52 40 -51 90zM295 1237q0 17 6 31q24 68 86 70q38 0 70.5 -17t40.5 -49q8 -36 8 -78q0 -183 -168 -344h-14 q26 34 54 70.5t49 72.5t33.5 77t12.5 91q-31 -33 -77 -33q-27 0 -52 19q-49 42 -49 90z" />
<glyph unicode="&#x201e;" horiz-adv-x="606" d="M45 142q0 16 6 30q23 66 89 72q37 0 69.5 -17t38.5 -49q8 -36 8 -80q0 -184 -166 -342h-16q30 39 56 72.5t47 69t33.5 77t12.5 91.5q-33 -30 -73 -31q-30 0 -54 18q-52 43 -51 89zM334 142q0 16 6 30q23 66 88 72q36 0 69 -17t39 -49q8 -38 9 -80q0 -184 -166 -342h-17 q30 39 56 72.5t47 69t34 77t13 91.5q-34 -30 -74 -31q-32 0 -53 18q-51 43 -51 89z" />
<glyph unicode="&#x2022;" horiz-adv-x="846" d="M80 557q0 95 47 175t126.5 126.5t174.5 46.5q72 0 135 -27t111 -74.5t75 -111t27 -135.5q0 -95 -47 -175t-126.5 -126.5t-174.5 -46.5t-174.5 46.5t-126.5 126.5t-47 175z" />
<glyph unicode="&#x2026;" horiz-adv-x="1024" d="M92 104q0 42 28 72q28 29 72 29q42 0 71.5 -28.5t29.5 -72.5t-29.5 -72t-71.5 -28t-71 29t-29 71zM440 104q0 42 29 71.5t71 29.5t71.5 -28.5t29.5 -72.5t-29.5 -72t-71.5 -28t-71 29t-29 71zM788 104q0 42 29 71.5t72 29.5t71.5 -28.5t28.5 -72.5t-29 -72t-71 -28 t-71.5 29t-29.5 71z" />
<glyph unicode="&#x202f;" horiz-adv-x="344" />
<glyph unicode="&#x205f;" horiz-adv-x="430" />
<glyph unicode="&#x2122;" horiz-adv-x="895" d="M56 1172v182h323v-182h-4q-10 76 -25 114q-16 40 -53 54q-5 2 -53 6v-432l70 2v-8h-191v8h55l8 430q-34 0 -46 -4q-45 -22 -59.5 -62t-22.5 -108h-2zM412 1344v6h135l92 -336h2l97 336h120v-6h-62v-434h62v-9h-182v9h68v415q-28 -106 -73 -265t-49 -159t-50 157.5 t-76 262.5v-383q0 -9 7 -15.5t20 -8.5t26 -3t19 -1v-9h-154v9q70 0 70 30v375q0 12 -11 17.5t-34 7.5t-27 4z" />
<glyph unicode="&#x25fc;" horiz-adv-x="910" d="M0 0v910h910v-910h-910z" />
</font>
</defs>
</svg>
